<svg version="1.1" xmlns="http://www.w3.org/2000/svg" xmlns:xlink="http://www.w3.org/1999/xlink" width="654.52626" height="268.3604" viewBox="0,0,654.52626,268.3604"><g transform="translate(83.74671,-158.07247)"><g data-paper-data="{&quot;isPaintingLayer&quot;:true}" fill-rule="nonzero" stroke-linecap="butt" stroke-linejoin="miter" stroke-miterlimit="10" stroke-dasharray="" stroke-dashoffset="0" style="mix-blend-mode: normal"><path d="M-76.5,425.18288v-109.91408h633v109.91408z" fill="#66ff68" stroke="#000000" stroke-width="2.5"/><path d="M-10.12328,266.3556v-57.62305h81.63265v57.62305z" fill="#66ff68" stroke="#000000" stroke-width="2.5"/><path d="M148.94034,216.53569v-53.27608h66.31171v53.27608z" fill="#66ff68" stroke="#000000" stroke-width="2.5"/><path d="M282.68896,214.71093v-54.69506h66.31171v54.69506z" fill="#66ff68" stroke="#000000" stroke-width="2.5"/><path d="M398.47535,214.01753v-54.69506h66.79574v54.69506z" fill="#66ff68" stroke="#000000" stroke-width="2.5"/><path d="M-83.74671,425.18288v-96.43416h647.27955v96.43416z" fill="#ec8c5f" stroke="none" stroke-width="0"/><path d="M-76.5,425.18288v-85.19694h647.27955v85.19694z" fill="#d47d55" stroke="none" stroke-width="0"/><path d="M-0.86035,260.27135v-45.45455h63.1068v45.45455z" fill="#ec8c5f" stroke="none" stroke-width="0"/><path d="M158.48631,209.09447v-38.39365h47.21977v38.39365z" fill="#ec8c5f" stroke="none" stroke-width="0"/><path d="M290.0284,209.64937v-44.57193h51.63283v44.57193z" fill="#ec8c5f" stroke="none" stroke-width="0"/><path d="M405.08917,208.95597v-44.57193h53.5681v44.57193z" fill="#ec8c5f" stroke="none" stroke-width="0"/><path d="M13.62628,252.17273v-29.25731h34.13353v29.25731z" fill="#d47d55" stroke="none" stroke-width="0"/><path d="M166.87113,202.69552v-25.59576h30.45013v25.59576z" fill="#d47d55" stroke="none" stroke-width="0"/><path d="M298.69583,203.44057v-32.15434h34.29796v32.15434z" fill="#d47d55" stroke="none" stroke-width="0"/><path d="M414.29551,202.74718v-32.15434h35.15541v32.15434z" fill="#d47d55" stroke="none" stroke-width="0"/></g></g></svg>