<svg version="1.1" xmlns="http://www.w3.org/2000/svg" xmlns:xlink="http://www.w3.org/1999/xlink" width="38.15258" height="39.29469" viewBox="0,0,38.15258,39.29469"><g transform="translate(-300.73913,-162.5)"><g data-paper-data="{&quot;isPaintingLayer&quot;:true}" fill="#9966ff" fill-rule="nonzero" stroke="#000000" stroke-width="2" stroke-linecap="butt" stroke-linejoin="miter" stroke-miterlimit="10" stroke-dasharray="" stroke-dashoffset="0" style="mix-blend-mode: normal"><path d="M328.13702,200.59383l-5.37104,-7.29446l5.59452,-4.53226l8.70437,8.49446z" data-paper-data="{&quot;index&quot;:null}"/><path d="M302.56597,197.26156l8.70437,-8.49446l5.59451,4.53226l-5.37104,7.29446z"/><path d="M303.5,179.4138c0,-5.39886 10.98507,-15.91379 16.48208,-15.91379c5.50299,0 16.51792,9.75656 16.51792,14.98047c0,5.72934 -11.23798,18.01953 -16.78458,18.01953c-5.45175,0 -16.21542,-11.49201 -16.21542,-17.08621z"/><path d="M326.66667,180c0,6.66423 -2.98477,12.06667 -6.66667,12.06667c-3.6819,0 -6.66667,-5.40243 -6.66667,-12.06666c0,-6.66423 2.98477,-12.06666 6.66667,-12.06666c3.6819,0 6.66667,5.40243 6.66667,12.06667z"/></g></g></svg>