<svg version="1.1" xmlns="http://www.w3.org/2000/svg" xmlns:xlink="http://www.w3.org/1999/xlink" width="38.15259" height="39.29468" viewBox="0,0,38.15259,39.29468"><g transform="translate(-220.73912,-162.50001)"><g data-paper-data="{&quot;isPaintingLayer&quot;:true}" fill-rule="nonzero" stroke="#000000" stroke-linecap="butt" stroke-linejoin="miter" stroke-miterlimit="10" stroke-dasharray="" stroke-dashoffset="0" style="mix-blend-mode: normal"><path d="M248.13702,200.59383l-5.37104,-7.29446l5.59452,-4.53226l8.70437,8.49446z" data-paper-data="{&quot;index&quot;:null}" fill="#9966ff" stroke-width="2"/><path d="M222.56597,197.26156l8.70437,-8.49446l5.59451,4.53226l-5.37104,7.29446z" fill="#9966ff" stroke-width="2"/><path d="M223.5,179.4138c0,-5.39886 10.98507,-15.91379 16.48208,-15.91379c5.50299,0 16.51792,9.75656 16.51792,14.98047c0,5.72934 -11.23798,18.01953 -16.78458,18.01953c-5.45175,0 -16.21542,-11.49201 -16.21542,-17.08621z" fill="#9966ff" stroke-width="2"/><path d="M246.66667,180c0,6.66423 -2.98477,12.06667 -6.66667,12.06667c-3.6819,0 -6.66667,-5.40243 -6.66667,-12.06666c0,-6.66423 2.98477,-12.06666 6.66667,-12.06666c3.6819,0 6.66667,5.40243 6.66667,12.06667z" fill="#9966ff" stroke-width="2"/><path d="M238.78182,186.08201c0,-0.52641 0,-1.4227 0,-1.74546c0,-0.22822 0.26185,-0.50909 0.60471,-0.50909c0.49914,0 1.16998,0 1.45454,0c0.2581,0 0.59529,0.28087 0.59529,0.50909c0,0.3014 0,1.10294 0,1.63637c0,0.29575 -0.27517,0.50909 -0.63166,0.50909c-0.50561,0 -1.17481,0 -1.45455,0c-0.24896,0 -0.56834,-0.16229 -0.56834,-0.4z" fill="#000000" stroke-width="1"/><path d="M239.61818,182.37291c0,0 -1.30852,-7.4892 -1.55614,-8.9064c-0.07763,-0.44431 0.18565,-0.87542 0.48811,-0.87542c0.50062,0 2.07304,0 3.01818,0c0.43762,0 0.69023,0.30203 0.63387,0.63892c-0.21319,1.2744 -1.52948,9.1429 -1.52948,9.1429z" fill="#000000" stroke-width="1"/></g></g></svg>