<svg version="1.1" xmlns="http://www.w3.org/2000/svg" xmlns:xlink="http://www.w3.org/1999/xlink" width="104.37419" height="113.3211" viewBox="0,0,104.37419,113.3211"><defs><radialGradient cx="210.55229" cy="107.53082" r="38.01155" gradientUnits="userSpaceOnUse" id="color-1"><stop offset="0" stop-color="#f7f7f5"/><stop offset="1" stop-color="#ccc6ba"/></radialGradient><linearGradient x1="220.60564" y1="106.72108" x2="220.60564" y2="136.16105" gradientUnits="userSpaceOnUse" id="color-2"><stop offset="0" stop-color="#d19c6b" stop-opacity="0.60392"/><stop offset="1" stop-color="#805741"/></linearGradient><linearGradient x1="175.60853" y1="98.34953" x2="175.60853" y2="132.25432" gradientUnits="userSpaceOnUse" id="color-3"><stop offset="0" stop-color="#d19c6b" stop-opacity="0.60392"/><stop offset="1" stop-color="#805741"/></linearGradient><radialGradient cx="238.15396" cy="133.94524" r="1.31281" gradientUnits="userSpaceOnUse" id="color-4"><stop offset="0" stop-color="#cda79e"/><stop offset="1" stop-color="#986f69"/></radialGradient></defs><g transform="translate(-149.53234,-82.02903)"><g data-paper-data="{&quot;isPaintingLayer&quot;:true}" fill-rule="nonzero" stroke-linecap="butt" stroke-linejoin="miter" stroke-miterlimit="10" stroke-dasharray="" stroke-dashoffset="0" style="mix-blend-mode: normal"><path d="M152.28234,161.35806v-76.57903h98.87419v76.57903z" fill="none" stroke="#000000" stroke-width="5.5"/><text transform="translate(155.68844,188.60013) scale(0.5,0.5)" font-size="40" xml:space="preserve" fill="#ffffff" fill-rule="nonzero" stroke="#000000" stroke-width="3" stroke-linecap="butt" stroke-linejoin="miter" stroke-miterlimit="10" stroke-dasharray="" stroke-dashoffset="0" font-family="&quot;soniclogo_jp&quot;, Sans Serif" font-weight="normal" text-anchor="start" style="mix-blend-mode: normal"><tspan x="0" dy="0">Булка</tspan></text><g stroke-width="1.5"><path d="M233.68776,110.373c-3.30491,1.2815 -6.45432,0.7478 -7.20649,-1.19203c-0.28835,-0.74365 -1.33977,-1.40946 -0.96403,-2.36417c0.60441,-1.53571 3.1296,-3.37598 5.16757,-4.16621c3.30491,-1.2815 7.71005,0.64746 8.46222,2.5873c0,0 -0.01521,1.18647 -0.85598,2.21583c-0.9558,1.17019 -2.84504,2.2375 -4.60329,2.91928z" fill="#9d533a" stroke="#000000"/><path d="M208.53665,143.83497c-11.93092,0 -33.45143,-6.69214 -40.93547,-17.96218c-1.58995,-2.39426 -6.04171,-18.23645 2.32176,-25.86003c7.39202,-6.73809 27.11544,-5.65153 34.14351,-3.47998c11.07569,3.42219 28.19362,13.47821 34.76146,23.48408c1.80248,2.74602 4.51822,11.72969 -1.60312,16.58241c-2.28203,1.8091 -5.7849,1.64713 -9.27679,2.67923c-7.62112,2.25257 -16.24017,4.55648 -19.41135,4.55648z" fill="url(#color-1)" stroke="#000000"/><path d="M230.37246,121.13665c0,0.81958 0.72374,1.82807 1.23891,2.9206c1.3672,2.89945 3.33505,6.39074 1.96487,8.51332c-3.23474,5.01103 -10.61479,7.07864 -15.48206,7.07864c-0.94068,0 -0.60065,-1.3556 -2.45071,-3.28447c-3.13459,-3.2681 -8.64109,-8.18181 -8.85622,-10.93585c-0.69804,-8.9357 12.27914,-19.36617 17.57312,-18.85705c1.90563,0.18327 9.48148,6.99815 13.48914,12.31897c1.69412,2.24922 1.90681,4.60648 2.15028,5.47579c0.34617,1.23597 -1.69682,-2.26205 -4.53871,-5.72976c-2.02543,-2.47146 -4.73752,-4.92752 -6.00572,-5.64343c-1.60095,-0.90374 0.91711,7.41276 0.91711,8.02908z" fill="url(#color-2)" stroke="none"/><path d="M213.017,115.82602c-2.85887,1.89353 -6.72228,7.59216 -7.42438,6.53214c-0.35626,-0.53789 -0.94628,-2.71267 0.03205,-4.97204c0.94969,-2.1932 3.3021,-4.60563 4.71029,-5.53832c1.82719,-1.21021 3.97676,-1.97112 5.41967,-1.97428c0.81471,-0.00178 1.28386,1.48135 0.5644,2.59355c-0.70864,1.09546 -1.88344,2.41936 -3.30203,3.35895z" fill="#c28566" stroke="#000000"/><path d="M222.69853,126.39423c0,-1.07881 0.87456,-1.95337 1.95336,-1.95337c1.07881,0 1.95337,0.87456 1.95337,1.95337c0,1.07881 -0.87456,1.95336 -1.95337,1.95336c-1.07881,0 -1.95336,-0.87456 -1.95336,-1.95336z" fill="#000000" stroke="#000000"/><path d="M225.76118,125.83682c0.03834,0.38338 -0.55216,0.75633 -1.31892,0.833c-0.76675,0.07668 -1.41942,-0.17196 -1.45776,-0.55534c-0.03834,-0.38338 0.55216,-0.75633 1.31892,-0.833c0.76675,-0.07668 1.41942,0.17196 1.45776,0.55534z" fill="#ffffff" stroke="none"/><path d="M175.25972,114.04619c0,0.63903 0.66696,1.45222 0.64494,2.15223c-0.04329,1.37682 0.13724,2.78204 0.25878,4.25959c0.04586,0.55738 -0.39537,1.12506 -0.16273,1.7054c1.08836,2.71493 2.42943,5.75672 3.95302,8.22165c1.93629,3.1326 3.99576,5.50516 4.33075,6.96636c0.23236,1.01353 -0.43088,-0.49274 -1.42061,-0.49274c-2.44452,0 -8.31911,-2.89125 -12.21871,-7.24621c-3.66037,-4.08778 -5.43131,-9.49837 -5.43131,-14.03149c0,-4.74506 0.75507,-10.92031 2.80491,-14.06813c1.99472,-3.06319 12.0893,-5.95385 14.42654,-5.95385c1.53888,0 0.06492,0.96216 -0.93153,2.58216c-1.1727,1.90655 -1.90488,5.70095 -3.2886,8.93385c-0.64007,1.49545 -1.02858,2.86404 -1.6792,4.20607c-0.42818,0.88322 -1.28626,1.67586 -1.28626,2.76511z" fill="url(#color-3)" stroke="none"/><path d="M239.46677,133.94524c0,0.69352 -0.58777,1.59821 -1.31281,1.59821c-0.31231,0 -0.77685,0.00984 -1.07456,-0.16435c-0.39343,-0.2302 -0.58073,-1.03907 -0.58073,-1.43386c0,-0.69352 0.93023,-1.25573 1.65528,-1.25573c0.72505,0 1.31281,0.56222 1.31281,1.25573z" fill="url(#color-4)" stroke="#000000"/><path d="M208.53665,143.83497c-11.93092,0 -33.45143,-6.69214 -40.93547,-17.96218c-1.58995,-2.39426 -6.04171,-18.23645 2.32176,-25.86003c7.39202,-6.73809 27.11544,-5.65153 34.14351,-3.47998c11.07569,3.42219 28.19362,13.47821 34.76146,23.48408c1.80248,2.74602 4.51822,11.72969 -1.60312,16.58241c-2.28203,1.8091 -5.7849,1.64713 -9.27679,2.67923c-7.62112,2.25257 -16.24017,4.55648 -19.41135,4.55648z" fill="none" stroke="#000000"/></g></g></g></svg>