<svg version="1.1" xmlns="http://www.w3.org/2000/svg" xmlns:xlink="http://www.w3.org/1999/xlink" width="788.19737" height="520.68796" viewBox="0,0,788.19737,520.68796"><g transform="translate(154.09869,80.34398)"><g data-paper-data="{&quot;isPaintingLayer&quot;:true}" fill-rule="nonzero" stroke-linejoin="miter" stroke-miterlimit="10" stroke-dasharray="" stroke-dashoffset="0" style="mix-blend-mode: normal"><path d="M-154.09869,440.34398v-520.68796h788.19737v520.68796z" fill="#000000" stroke="#ffffff" stroke-width="0" stroke-linecap="butt"/><text transform="translate(148.9579,55.54331) scale(1.01159,1.01159)" font-size="40" xml:space="preserve" fill="#ffffff" fill-rule="nonzero" stroke="none" stroke-width="1" stroke-linecap="butt" stroke-linejoin="miter" stroke-miterlimit="10" stroke-dasharray="" stroke-dashoffset="0" font-family="&quot;Minecraft Rus NEW&quot;, Sans Serif" font-weight="normal" text-anchor="start" style="mix-blend-mode: normal"><tspan x="0" dy="0">авторы</tspan></text><g fill="#000000" stroke="#ffffff" stroke-width="5"><path d="M291.32685,153.94789c0,0 -5.68515,-1.52404 -8.47843,-2.41419c-2.79126,-0.88951 -8.2752,-2.92491 -8.2752,-2.92491l-2.61819,-4.77717c0,0 7.44492,-11.28083 11.55504,-15.86977c4.21762,-4.70894 13.43652,-12.03314 13.43652,-12.03314c0,0 -0.80421,-1.14087 -1.07909,-1.93412c-0.36099,-1.04181 -0.89989,-3.77677 -0.89989,-3.77677c0,0 6.07242,-2.99704 9.82227,-4.14346c5.66972,-1.73337 20.88608,-5.2448 20.88608,-5.2448l2.39006,3.8143c0,0 7.16454,-0.47628 10.71966,-0.45674c3.64856,0.02003 10.89864,0.5755 10.89864,0.5755c0,0 -0.39394,-1.77298 -0.45786,-2.55774c-0.05856,-0.71878 0.08905,-1.97013 0.08905,-1.97013c0,0 9.77846,2.5732 14.79251,4.34022c5.39886,1.90265 16.53179,6.69885 16.53179,6.69885c0,0 -0.52723,0.90815 -0.99784,1.39567c-0.60494,0.62666 -2.33101,2.05274 -2.33101,2.05274c0,0 6.29743,5.2921 9.17437,8.02782c2.65967,2.5291 7.48672,7.8154 7.48672,7.8154l4.6817,-2.36092c0,0 7.726,11.28263 10.76773,16.04492c2.30758,3.61285 5.89634,10.04512 5.89634,10.04512c0,0 -1.5331,1.7535 -2.33391,2.41534c-0.74302,0.6141 -2.31061,1.42308 -2.31061,1.42308c0,0 1.13497,17.61792 1.19922,24.2819c0.04426,4.58952 -0.85077,11.85379 -0.85077,11.85379c0,0 -1.91337,1.7136 -2.86242,2.33598c-0.84404,0.55352 -2.55398,1.21592 -2.55398,1.21592c0,0 -5.47265,-1.63845 -8.12666,-2.57419c-2.60877,-0.91975 -7.66413,-2.99309 -7.66413,-2.99309z" stroke-linecap="round"/><path d="M262.14196,195.51686c0,0 0.60043,-4.36701 1.4499,-5.28631c3.42154,-3.70269 24.40102,-24.93228 24.40102,-24.93228" stroke-linecap="round"/><path d="M383.58394,201.94325c0,0 1.58538,27.04849 1.39459,33.13042c-0.06922,2.20704 -1.83915,5.93107 -1.83915,5.93107" stroke-linecap="round"/><path d="M295.6544,198.29313l-14.62521,34.67724l-7.39537,-2.15896" stroke-linecap="round"/><path d="M351.88034,259.76525l-6.27068,-2.03433l11.37578,-36.17581" stroke-linecap="round"/><path d="M292.06156,152.75688c10.07233,-27.14166 40.24024,-40.9791 67.38192,-30.90676c27.14166,10.07233 40.9791,40.24026 30.90677,67.38192c-10.07233,27.14166 -40.24026,40.97909 -67.38192,30.90676c-27.14166,-10.07233 -40.9791,-40.24026 -30.90677,-67.38192z" stroke-linecap="butt"/><path d="M335.08262,117.88727l-7.27367,-13.53047" stroke-linecap="round"/><path d="M395.94087,129.57419l-14.63184,7.36337" stroke-linecap="round"/><path d="M374.13177,159.83781c-3.88187,10.46039 -18.35644,14.73642 -32.32994,9.55082c-13.97345,-5.18558 -22.15433,-17.86909 -18.27246,-28.32948c3.88187,-10.46037 18.35648,-14.73642 32.32993,-9.55084c13.97345,5.18558 22.15434,17.86912 18.27247,28.32951z" stroke-linecap="butt"/><path d="M358.69375,154.10873c-2.15334,5.80255 -8.31484,8.86769 -13.76215,6.84618c-5.44728,-2.0215 -8.11756,-8.36413 -5.96422,-14.16668c2.15334,-5.80255 8.31483,-8.86767 13.76214,-6.84616c5.44728,2.0215 8.11757,8.36413 5.96424,14.16666z" stroke-linecap="butt"/><path d="M297.1172,116.11677l9.39816,14.41059" stroke-linecap="round"/><path d="M349.88313,105.49878l3.29531,13.78425" stroke-linecap="round"/><path d="M376.52352,115.33286l-9.97851,8.63984" stroke-linecap="round"/><path d="M394.28169,162.71771l15.63806,-4.46424" stroke-linecap="round"/></g><g fill="#000000" stroke="#ffffff" stroke-width="5" stroke-linecap="butt"><path d="M194.86891,239.20146l-29.37489,-22.53443l16.8137,-24.15029l43.82484,23.45792z" data-paper-data="{&quot;index&quot;:null}"/><path d="M90.69253,255.17531l24.52053,-43.23927l27.11356,11.43632l-12.79768,34.74054z"/><path d="M74.07927,184.04506c-6.13466,-21.1955 25.04388,-74.95852 46.62471,-81.2047c21.60431,-6.25298 75.93434,19.53438 81.87021,40.04304c6.51018,22.49294 -23.64406,83.51287 -45.41958,89.8154c-21.40315,6.19476 -76.71872,-26.69135 -83.07534,-48.65375z"/><path d="M165.69591,160.02242c7.57248,26.16325 1.99324,50.76437 -12.46162,54.94807c-14.45485,4.1837 -32.31154,-13.63426 -39.88403,-39.79751c-7.57248,-26.16325 -1.99323,-50.76434 12.46162,-54.94803c14.45486,-4.1837 32.31155,13.63427 39.88404,39.79756z"/></g><text transform="translate(100.59797,333.71402) scale(0.8288,0.8288)" font-size="40" xml:space="preserve" fill="#ffffff" fill-rule="nonzero" stroke="none" stroke-width="1" stroke-linecap="butt" stroke-linejoin="miter" stroke-miterlimit="10" stroke-dasharray="" stroke-dashoffset="0" font-family="&quot;Minecraft Rus NEW&quot;, Sans Serif" font-weight="normal" text-anchor="start" style="mix-blend-mode: normal"><tspan x="0" dy="0">сея творения</tspan></text></g></g></svg>