<svg version="1.1" xmlns="http://www.w3.org/2000/svg" xmlns:xlink="http://www.w3.org/1999/xlink" width="653.02476" height="467.83275" viewBox="0,0,653.02476,467.83275"><g transform="translate(83.74671,42.90139)"><g data-paper-data="{&quot;isPaintingLayer&quot;:true}" fill-rule="nonzero" stroke-linecap="butt" stroke-linejoin="miter" stroke-miterlimit="10" stroke-dasharray="" stroke-dashoffset="0" style="mix-blend-mode: normal"><path d="M175.15866,120.69511v-61.39154h136.22897v61.39154z" fill="#66ff68" stroke="#000000" stroke-width="2.5"/><path d="M-76.5,423.68136v-114.41856h633v114.41856z" fill="#66ff68" stroke="#000000" stroke-width="2.5"/><path d="M-30.70032,89.31723v-130.96862h342.08796v130.96862z" fill="#66ff68" stroke="#000000" stroke-width="2.5"/><path d="M141.01875,266.05906v-44.57193h136.22897v44.57193z" fill="#66ff68" stroke="#000000" stroke-width="2.5"/><path d="M396.33685,203.97534v-125.28865h170.73171v125.28865z" fill="#66ff68" stroke="#000000" stroke-width="2.5"/><path d="M-83.74671,404.93662v-85.19694h647.27955v85.19694z" fill="#ec8c5f" stroke="none" stroke-width="0"/><path d="M-78.0015,423.68136v-85.19694h647.27955v85.19694z" fill="#d47d55" stroke="none" stroke-width="0"/><path d="M409.73818,187.71573v-92.76944h143.92906v92.76944z" fill="#ec8c5f" stroke="none" stroke-width="0"/><path d="M148.89493,261.42534v-35.3045h120.47661v35.3045z" fill="#ec8c5f" stroke="none" stroke-width="0"/><path d="M-6.77717,78.52243v-87.88853h307.07395v87.88853z" fill="#ec8c5f" stroke="none" stroke-width="0"/><path d="M183.78205,115.66422v-21.7731h117.96436v21.7731z" fill="#ec8c5f" stroke="none" stroke-width="0"/><path d="M-15.24565,64.25074v-85.19694h296.72578v85.19694z" fill="#d47d55" stroke="none" stroke-width="0"/><path d="M420.40966,176.41486v-71.63719h100.61783v71.63719z" fill="#d47d55" stroke="none" stroke-width="0"/><path d="M191.31728,111.47649v-13.39764h102.89389v13.39764z" fill="#d47d55" stroke="none" stroke-width="0"/><path d="M156.88243,257.70664v-27.8671h104.50161v27.8671z" fill="#d47d55" stroke="none" stroke-width="0"/></g></g></svg>