<svg version="1.1" xmlns="http://www.w3.org/2000/svg" xmlns:xlink="http://www.w3.org/1999/xlink" width="268.57104" height="259.51294" viewBox="0,0,268.57104,259.51294"><g transform="translate(-95.71448,-38.74353)"><g data-paper-data="{&quot;isPaintingLayer&quot;:true}" fill-rule="nonzero" stroke-linejoin="miter" stroke-miterlimit="10" stroke-dasharray="" stroke-dashoffset="0" style="mix-blend-mode: normal"><path d="M109.99925,38.74353c0.30327,0 0.54912,0.25308 0.54912,0.56527c0,0.31219 -0.24585,0.56526 -0.54912,0.56526c-0.30327,0 -0.54912,-0.25308 -0.54912,-0.56526c0,-0.31219 0.24585,-0.56527 0.54912,-0.56527z" data-paper-data="{&quot;index&quot;:null}" fill="#ffffff" stroke="none" stroke-width="0" stroke-linecap="butt"/><path d="M228.26914,113.96384c0,0 -16.2417,-16.40614 -20.89121,-25.68809c-5.03558,-10.05269 -8.25654,-32.50046 -8.25654,-32.50046" fill="none" stroke="#000000" stroke-width="10" stroke-linecap="round"/><path d="M196.21285,125.93752c0,0 -26.08359,-6.71957 -36.43052,-13.22258c-10.85204,-6.82047 -27.23864,-26.79327 -27.23864,-26.79327" fill="none" stroke="#000000" stroke-width="10" stroke-linecap="round"/><path d="M172.28781,172.68955c0,0 -20.55413,4.38065 -31.1856,3.31194c-12.81577,-1.28829 -40.38772,-10.50674 -40.38772,-10.50674" fill="none" stroke="#000000" stroke-width="10" stroke-linecap="round"/><path d="M186.30221,225.67295c0,0 -14.10166,15.41923 -22.57206,21.57281c-8.41933,6.11648 -28.09804,15.23804 -28.09804,15.23804" fill="none" stroke="#000000" stroke-width="10" stroke-linecap="round"/><path d="M232.42831,247.80823c0,0 -0.6586,10.87099 -2.14909,17.28885c-1.91859,8.26119 -8.40586,28.15939 -8.40586,28.15939" fill="none" stroke="#000000" stroke-width="10" stroke-linecap="round"/><path d="M277.11649,233.85791c0,0 12.9462,16.2013 17.37157,23.20507c3.34861,5.29965 6.86269,15.14908 6.86269,15.14908" fill="none" stroke="#000000" stroke-width="10" stroke-linecap="round"/><path d="M303.1185,199.65573c0,0 23.52437,9.39174 32.24948,14.95116c7.74803,4.93686 17.51889,16.76001 17.51889,16.76001" fill="none" stroke="#000000" stroke-width="10" stroke-linecap="round"/><path d="M301.5118,154.94204c0,0 19.36792,-10.08623 29.38297,-13.62953c9.1679,-3.24358 28.39076,-6.81065 28.39076,-6.81065" fill="none" stroke="#000000" stroke-width="10" stroke-linecap="round"/><path d="M269.79777,122.28283c0,0 8.38933,-17.21395 14.60425,-24.57372c6.32811,-7.4938 23.03099,-19.99427 23.03099,-19.99427" fill="none" stroke="#000000" stroke-width="10" stroke-linecap="round"/><path d="M172.6079,175.23139c1.95705,-19.4686 10.37277,-37.23014 24.95111,-48.02153c12.85324,-9.51441 30.9742,-14.2786 48.13902,-12.55313c21.33146,2.14431 40.13374,14.97826 50.66901,32.10113c7.55741,12.28296 10.89632,26.55296 9.35811,41.85493c-1.95131,19.41148 -12.5374,35.0668 -27.16737,45.84878c-12.97976,9.56581 -28.97339,14.58774 -46.19533,12.85654c-17.55829,-1.76502 -33.26848,-10.48433 -44.03606,-22.59723c-11.69779,-13.15933 -17.636,-30.41434 -15.7185,-49.48948z" fill="#9800ff" stroke="#000000" stroke-width="6.5" stroke-linecap="butt"/><path d="M201.87594,177.25253c2.07537,-20.64565 20.49439,-35.69983 41.14004,-33.62445c20.64565,2.07537 35.69983,20.49439 33.62445,41.14004c-2.07537,20.64565 -20.49439,35.69983 -41.14004,33.62445c-20.64565,-2.07537 -35.69983,-20.49439 -33.62445,-41.14004z" fill="#101010" stroke="#000000" stroke-width="6.5" stroke-linecap="butt"/></g></g></svg>