<svg version="1.1" xmlns="http://www.w3.org/2000/svg" xmlns:xlink="http://www.w3.org/1999/xlink" width="832" height="629.00152" viewBox="0,0,832,629.00152"><defs><linearGradient x1="9.21646" y1="339.33366" x2="155.26734" y2="339.33366" gradientTransform="translate(-12.88344,-485.88277) scale(1.39788,1.39788)" gradientUnits="userSpaceOnUse" id="color-1"><stop offset="0" stop-color="#bababa"/><stop offset="1" stop-color="#0004ba"/></linearGradient><linearGradient x1="355.1562" y1="339.33367" x2="501.20707" y2="339.33367" gradientTransform="translate(-496.46296,-485.88277) scale(1.39788,1.39788)" gradientUnits="userSpaceOnUse" id="color-2"><stop offset="0" stop-color="#bababa"/><stop offset="1" stop-color="#0096ba"/></linearGradient></defs><g transform="translate(176,86)"><g data-paper-data="{&quot;isPaintingLayer&quot;:true}" fill-rule="nonzero" stroke-linejoin="miter" stroke-miterlimit="10" stroke-dasharray="" stroke-dashoffset="0" style="mix-blend-mode: normal"><path d="M-176,446v-532h832v532z" fill="#66c0ff" stroke="none" stroke-width="0" stroke-linecap="butt"/><g stroke-width="2.5"><path d="M400.25,295.15c0,28.85688 -36.89235,20.25 -75,20.25c-38.10765,0 -68,3.60688 -68,-25.25c0,-10.35372 2.8233,-21.98802 9.79475,-30.33294c4.01607,-4.8073 11.41096,-9.35264 16.86441,-13.71824c6.76781,-5.41777 14.70452,-8.86443 23.47803,-10.77914c6.0883,-1.3287 12.57957,-1.91967 19.36282,-1.91967c9.10108,0 17.88323,2.24689 25.92029,6.06053c3.33191,1.58102 6.12171,3.43131 9.41028,5.50241c8.93476,5.62702 18.90941,11.81127 25.22948,18.45244c9.23722,9.70653 12.93995,20.38913 12.93995,31.73461z" fill="#00a273" stroke="#000000" stroke-linecap="butt"/><path d="M350.75,263.9c0,0 8.07631,9.97529 11.43186,15.65391c3.12854,5.29445 8.06814,17.34609 8.06814,17.34609" fill="none" stroke-opacity="0.38824" stroke="#000000" stroke-linecap="round"/><path d="M273.75,280.4c0,0 9.7758,-11.95378 17.08829,-16.56761c6.61812,-4.17572 24.91171,-9.93239 24.91171,-9.93239" fill="none" stroke-opacity="0.38824" stroke="#000000" stroke-linecap="round"/><path d="M326.75,305.4c0,0 -15.07854,-1.91107 -20.42362,-3.98528c-5.78651,-2.24552 -13.07638,-9.01472 -13.07638,-9.01472" fill="none" stroke-opacity="0.38824" stroke="#000000" stroke-linecap="round"/></g><g stroke-width="2.5"><path d="M179.25,295.15c0,28.85688 -36.89235,20.25 -75,20.25c-38.10765,0 -68,3.60688 -68,-25.25c0,-10.35372 2.8233,-21.98801 9.79475,-30.33294c4.01607,-4.8073 11.41096,-9.35264 16.86441,-13.71824c6.76782,-5.41777 14.70452,-8.86443 23.47803,-10.77914c6.0883,-1.32869 12.57957,-1.91967 19.36282,-1.91967c9.10108,0 17.88323,2.24689 25.92029,6.06053c3.33191,1.58102 6.12171,3.43131 9.41027,5.50241c8.93476,5.62702 18.90941,11.81127 25.22948,18.45244c9.23722,9.70654 12.93995,20.38914 12.93995,31.73462z" fill="#00a273" stroke="#000000" stroke-linecap="butt"/><path d="M129.75,263.9c0,0 8.07631,9.97529 11.43185,15.65391c3.12854,5.29445 8.06814,17.34609 8.06814,17.34609" fill="none" stroke-opacity="0.38824" stroke="#000000" stroke-linecap="round"/><path d="M52.75,280.4c0,0 9.7758,-11.95378 17.08829,-16.56761c6.61812,-4.17572 24.91171,-9.93239 24.91171,-9.93239" fill="none" stroke-opacity="0.38824" stroke="#000000" stroke-linecap="round"/><path d="M105.75,305.4c0,0 -15.07853,-1.91107 -20.42362,-3.98528c-5.78652,-2.24552 -13.07638,-9.01472 -13.07638,-9.01472" fill="none" stroke-opacity="0.38824" stroke="#000000" stroke-linecap="round"/></g><path d="M-4.53125,362.5v-53h491v53z" fill="#66ff68" stroke="#000000" stroke-width="2.5" stroke-linecap="butt"/><path d="M-6.03125,375.5v-53h491v53z" fill="#ec8c5f" stroke="#000000" stroke-width="2" stroke-linecap="butt"/><path d="M-3.52825,543.00152v-204h485.18318v204z" fill="#d47d55" stroke="none" stroke-width="0" stroke-linecap="butt"/><text transform="translate(9.21643,347.58596) scale(0.71537,0.71537)" font-size="40" xml:space="preserve" fill="url(#color-1)" fill-rule="nonzero" stroke="#000000" stroke-width="2" stroke-linecap="butt" stroke-linejoin="miter" stroke-miterlimit="10" stroke-dasharray="" stroke-dashoffset="0" font-family="&quot;Pusia-Bold&quot;, Sans Serif" font-weight="normal" text-anchor="start" style="mix-blend-mode: normal"><tspan x="0" dy="0">@bt_lobiya</tspan></text><text transform="translate(355.15471,347.58596) scale(0.71537,0.71537)" font-size="40" xml:space="preserve" fill="url(#color-2)" fill-rule="nonzero" stroke="#000000" stroke-width="2" stroke-linecap="butt" stroke-linejoin="miter" stroke-miterlimit="10" stroke-dasharray="" stroke-dashoffset="0" font-family="&quot;Pusia-Bold&quot;, Sans Serif" font-weight="normal" text-anchor="start" style="mix-blend-mode: normal"><tspan x="0" dy="0">@Arhifbt</tspan></text></g></g></svg>