<svg version="1.1" xmlns="http://www.w3.org/2000/svg" xmlns:xlink="http://www.w3.org/1999/xlink" width="654.52626" height="468.59795" viewBox="0,0,654.52626,468.59795"><g transform="translate(83.74671,38.37477)"><g data-paper-data="{&quot;isPaintingLayer&quot;:true}" fill-rule="nonzero" stroke-linecap="butt" stroke-linejoin="miter" stroke-miterlimit="10" stroke-dasharray="" stroke-dashoffset="0" style="mix-blend-mode: normal"><path d="M112.98046,290.26734v-98.49906h192.30769v98.49906z" fill="#66ff68" stroke="#000000" stroke-width="2.5"/><path d="M122.58554,262.50364v-63.77278h173.09753v63.77278z" fill="#ec8c5f" stroke="none" stroke-width="0"/><path d="M131.16003,267.32679v-63.77278h155.94855v63.77278z" fill="#d47d55" stroke="none" stroke-width="0"/><path d="M244.31255,190.8302v-136.02251h60.97561v136.02251z" fill="#66ff68" stroke="#000000" stroke-width="2.5"/><path d="M-75.64865,415.07277v-155.52853h633v155.52853z" fill="#66ff68" stroke="#000000" stroke-width="2.5"/><path d="M67.95232,142.0497v-79.73734h85.36585v79.73734z" fill="#66ff68" stroke="#000000" stroke-width="2.5"/><path d="M416.92043,125.16416v-162.28893h102.25141v162.28893z" fill="#66ff68" stroke="#000000" stroke-width="2.5"/><path d="M-83.74671,430.22319v-155.52853h647.27955v155.52853z" fill="#ec8c5f" stroke="none" stroke-width="0"/><path d="M-76.5,374.13181v-85.19694h647.27955v85.19694z" fill="#d47d55" stroke="none" stroke-width="0"/><path d="M75.80138,135.94309v-67.52412h69.66774v67.52412z" fill="#ec8c5f" stroke="none" stroke-width="0"/><path d="M255.50775,179.62495v-113.612h38.58521v113.612z" fill="#ec8c5f" stroke="none" stroke-width="0"/><path d="M428.12116,115.79309v-125.93783h79.84995v125.93783z" fill="#ec8c5f" stroke="none" stroke-width="0"/><path d="M440.17574,105.47365v-122.1865h77.70632v122.1865z" fill="#d47d55" stroke="none" stroke-width="0"/><path d="M264.8861,168.37093v-91.10397h19.82851v91.10397z" fill="#d47d55" stroke="none" stroke-width="0"/><path d="M82.23224,130.58404v-56.806h56.806v56.806z" fill="#d47d55" stroke="none" stroke-width="0"/></g></g></svg>