<svg version="1.1" xmlns="http://www.w3.org/2000/svg" xmlns:xlink="http://www.w3.org/1999/xlink" width="63.8" height="38.54424" viewBox="0,0,63.8,38.54424"><g transform="translate(-212.88889,-160.35541)"><g data-paper-data="{&quot;isPaintingLayer&quot;:true}" fill-rule="nonzero" stroke="#000000" stroke-linecap="butt" stroke-linejoin="miter" stroke-miterlimit="10" stroke-dasharray="" stroke-dashoffset="0" style="mix-blend-mode: normal"><path d="M260.38889,193.6775c0,2.43006 -1.61177,4.4 -3.6,4.4c-1.98822,0 -3.6,-1.96994 -3.6,-4.4c0,-2.43006 0.81178,-6.4 2.8,-6.4c1.2125,0 3.085,-2.06737 3.73731,-0.94454c0.41734,0.71836 0.66269,6.39643 0.66269,7.34454z" fill="#26ff00" stroke-width="1"/><path d="M225.63226,198.24318c-1.5286,0.40014 -3.00312,-0.01811 -4.02823,-0.67888c-0.88623,-0.57125 -1.43659,-1.32374 -1.39563,-1.88539c0.10499,-1.43969 0.90042,-2.78981 2.44561,-4.15419c1.47028,-1.29824 3.67614,-2.64723 4.43489,-2.64723c2.0009,0 4.4841,1.31471 4.73938,2.93058c0.10383,0.6572 -0.98162,2.43525 -2.55963,3.95911c-1.2889,1.24467 -3.03955,2.31976 -3.63638,2.47599z" fill="#26ff00" stroke-width="1"/><path d="M235.18889,197.27749c-2.20914,0 -4,-1.20883 -4,-2.7c0,-0.79541 4.07622,-5.16653 6.20033,-5.11338c1.11636,0.02793 4.05211,0.81707 3.9826,2.23219c-0.01977,0.40257 -0.75123,1.48372 -1.7547,2.5885c-1.34,1.47528 -3.16505,2.99269 -4.42824,2.99269z" fill="#26ff00" stroke-width="1"/><path d="M252.78889,194.17749c0,1.82254 -1.70132,3.3 -3.8,3.3c-0.98798,0 -5.0561,-3.44002 -5.72666,-5.18219c-0.75385,-1.95857 1.99477,-2.24623 2.92461,-2.27789c0.95321,-0.03246 2.47283,-0.32811 3.81396,0.52818c1.50667,0.96198 2.78809,3.11572 2.78809,3.6319z" fill="#26ff00" stroke-width="1"/><path d="M276.18889,179.4775c0,1.38174 -0.79094,2.73243 -2.30007,3.53733c-1.50688,0.80371 -3.73041,1.06267 -5.79994,1.06267c-1.99647,0 -6.02488,-0.92005 -7.17623,-1.76804c-1.2374,-0.91136 0.47624,-1.80151 0.47624,-3.23196c0,-2.76143 -4.04214,-6 0.1,-6c2.3896,0 6.51445,0.01097 9.9156,1.56589c2.4944,1.14038 4.7844,3.66576 4.7844,4.83411z" fill="#26ff00" stroke-width="1"/><path d="M263.38889,182.2775c0,1.11789 -1.78203,4.43441 -5.93187,6.53462c-4.46101,2.25768 -11.50264,3.26539 -17.36813,3.26539c-6.53494,0 -13.4895,-1.02573 -16.51089,-3.18476c-2.21319,-1.5815 -3.38911,-4.23451 -3.38911,-5.21524c0,-2.31959 8.57816,0 19.9,0c11.32183,0 23.3,-3.71959 23.3,-1.4z" fill="#26ff00" stroke-width="1"/><path d="M219.38889,179.7775c0,1.38071 -1.34314,2.5 -3,2.5c-1.65686,0 -3,-0.31929 -3,-1.7c0,-1.38071 3.94314,-4.5 5.6,-4.5c1.65686,0 0.4,2.31929 0.4,3.7z" fill="#26ff00" stroke-width="1"/><path d="M269.65556,179.67749c-0.69956,0 -1.26667,-0.35817 -1.26667,-0.8c0,-0.20567 0.32673,-0.64893 0.91356,-0.66313c0.23038,-0.00557 0.65939,0.08757 1.121,0.24964c0.17623,0.06188 0.73225,0.34555 0.8062,0.61564c0.06325,0.23102 -0.33055,0.4521 -0.45626,0.51594c-0.38536,0.1957 -0.94745,0.08191 -1.11784,0.08191z" fill="#000000" stroke-width="1"/><path d="M262.70582,182.5557c-4.39272,2.99598 -13.63314,4.3218 -21.31693,4.3218c-6.79717,0 -13.09215,0.78707 -17.61254,-0.76346c-0.92478,-0.31721 -4.04499,-2.2202 -5.35907,-4.74731c-1.54953,-2.97989 -1.13436,-6.82757 0.41556,-9.9663c1.61192,-3.26428 9.28492,-9.64557 18.52484,-10.04502c3.35671,-0.14512 9.23255,0.29187 14.66097,2.57608c3.90635,1.64374 7.58101,4.62978 9.9185,7.23334c3.44379,3.83578 1.25765,11.05737 0.76869,11.39086z" fill="#4e8a19" stroke-width="2"/></g></g></svg>