<svg version="1.1" xmlns="http://www.w3.org/2000/svg" xmlns:xlink="http://www.w3.org/1999/xlink" width="40.144" height="25.46609" viewBox="0,0,40.144,25.46609"><g transform="translate(-225.58441,-170.84269)"><g data-paper-data="{&quot;isPaintingLayer&quot;:true}" fill-rule="nonzero" stroke-linecap="butt" stroke-linejoin="miter" stroke-miterlimit="10" stroke-dasharray="" stroke-dashoffset="0" style="mix-blend-mode: normal"><path d="M227.76595,195.26002l-1.125,-20.44444h9.77778l6.25,19.69444z" fill="#9966ff" stroke="#000000" stroke-width="2"/><path d="M227.14,183.6268l-0.5,-9.475l37.99206,-2.24264l-1.04412,12.02647z" fill="#9966ff" stroke="#000000" stroke-width="2"/><path d="M247.98804,181.43824c0.19588,0.08264 0.39175,0.16528 0.58763,0.24791l0.0244,0.02826l0.00666,-0.01114l0.53895,0.32245c0.1626,0.0927 0.26622,0.27332 0.25116,0.47236c-0.02084,0.27535 -0.26094,0.48169 -0.5363,0.46085l-0.5698,-0.04311l0.00349,-0.04625c-2.53902,0.45616 -4.90461,-0.10623 -7.57427,0.37855l-0.69914,-0.09988c0,0 -0.27874,-0.04278 -0.38543,-0.27342c-0.99258,-0.07576 -1.96661,-0.15106 -2.88321,-0.07122c-1.86175,0.16217 -3.33829,0.34503 -5.22256,-0.10554c-0.74873,0.01623 -3.16459,0.5952 -3.62682,-0.14724c-0.23497,-0.37742 0.18169,-0.8901 0.11141,-1.32909c-0.29557,-1.846 -0.4647,-4.04613 -0.32787,-5.90584c0,0 0.03773,-0.49857 0.5363,-0.46085c0.49857,0.03772 0.46085,0.53629 0.46085,0.53629c-0.10657,1.36594 1.01547,5.7225 0.07124,6.63582c-0.28456,0.27525 0.77133,-0.18122 1.16165,-0.24757c0.59706,-0.10151 1.1156,-0.07011 1.71956,-0.07584c1.86114,0.42171 3.25778,0.14619 5.07695,0.10065c2.11679,-0.053 4.48026,0.4729 6.70122,0.03378c1.15797,-0.00399 2.41592,-0.14429 3.57313,-0.34313l0.13842,-0.1113c0,0 0.30123,-0.16948 0.5437,0.02382c0.1663,-0.03324 0.31869,0.0307 0.31869,0.0307z" fill="#6d49b6" stroke="none" stroke-width="0.5"/><path d="M238.44488,184.23167c0.5,0 0.5,0.5 0.5,0.5l-0.01493,0.01666c0.41887,1.71887 0.09304,3.41641 0.92766,5.07007c0.43882,0.89508 2.31291,2.79128 1.14772,3.95647c-0.69331,0.69331 -2.19082,-0.06616 -2.9434,-0.13087c-2.34236,-0.20141 -4.60201,0.20453 -6.8663,0.75633c-0.51668,0.00258 -1.63443,0.15629 -2.1145,-0.03431c-2.91135,-1.15588 -0.13064,-6.97262 -1.29035,-9.20385c0,0 -0.22361,-0.44721 0.22361,-0.67082c0.44721,-0.22361 0.67082,0.22361 0.67082,0.22361c1.41845,2.92167 -1.9813,8.66683 2.38825,8.69287c2.29802,-0.59212 4.68316,-0.9872 7.06473,-0.76091c0.05568,0.00529 2.0168,0.5641 2.16005,0.42085c0.51299,-0.51299 -1.16657,-2.47048 -1.33504,-2.80215c-0.86366,-1.74138 -0.54304,-3.4895 -1.00337,-5.27475l-0.01493,-0.2592c0,0 0,-0.5 0.5,-0.5z" fill="#6d49b6" stroke="none" stroke-width="0.5"/></g></g></svg>