<svg version="1.1" xmlns="http://www.w3.org/2000/svg" xmlns:xlink="http://www.w3.org/1999/xlink" width="494.75" height="541.42166" viewBox="0,0,494.75,541.42166"><defs><linearGradient x1="6.46882" y1="31.78634" x2="322.9974" y2="31.78634" gradientTransform="translate(-7.06705,-46.72598) scale(1.09249,1.09249)" gradientUnits="userSpaceOnUse" id="color-1"><stop offset="0" stop-color="#bb0000"/><stop offset="1" stop-color="#427fff"/></linearGradient></defs><g transform="translate(7.03125,-1.57986)"><g data-paper-data="{&quot;isPaintingLayer&quot;:true}" fill-rule="nonzero" stroke-linejoin="miter" stroke-miterlimit="10" stroke-dasharray="" stroke-dashoffset="0" style="mix-blend-mode: normal"><g stroke-width="2.5"><path d="M399.25,295.15c0,28.85688 -36.89235,20.25 -75,20.25c-38.10765,0 -68,3.60688 -68,-25.25c0,-10.35372 2.8233,-21.98802 9.79475,-30.33294c4.01607,-4.8073 11.41096,-9.35264 16.86441,-13.71824c6.76781,-5.41777 14.70452,-8.86443 23.47803,-10.77914c6.0883,-1.3287 12.57957,-1.91967 19.36282,-1.91967c9.10108,0 17.88323,2.24689 25.92029,6.06053c3.33191,1.58102 6.12171,3.43131 9.41028,5.50241c8.93476,5.62702 18.90941,11.81127 25.22948,18.45244c9.23722,9.70653 12.93995,20.38913 12.93995,31.73461z" fill="#00a273" stroke="#000000" stroke-linecap="butt"/><path d="M349.75,263.9c0,0 8.07631,9.97529 11.43186,15.65391c3.12854,5.29445 8.06814,17.34609 8.06814,17.34609" fill="none" stroke-opacity="0.38824" stroke="#000000" stroke-linecap="round"/><path d="M272.75,280.4c0,0 9.7758,-11.95378 17.08829,-16.56761c6.61812,-4.17572 24.91171,-9.93239 24.91171,-9.93239" fill="none" stroke-opacity="0.38824" stroke="#000000" stroke-linecap="round"/><path d="M325.75,305.4c0,0 -15.07854,-1.91107 -20.42362,-3.98528c-5.78651,-2.24552 -13.07638,-9.01472 -13.07638,-9.01472" fill="none" stroke-opacity="0.38824" stroke="#000000" stroke-linecap="round"/></g><g stroke-width="2.5"><path d="M178.25,295.15c0,28.85688 -36.89235,20.25 -75,20.25c-38.10765,0 -68,3.60688 -68,-25.25c0,-10.35372 2.8233,-21.98801 9.79475,-30.33294c4.01607,-4.8073 11.41096,-9.35264 16.86441,-13.71824c6.76782,-5.41777 14.70452,-8.86443 23.47803,-10.77914c6.0883,-1.32869 12.57957,-1.91967 19.36282,-1.91967c9.10108,0 17.88323,2.24689 25.92029,6.06053c3.33191,1.58102 6.12171,3.43131 9.41027,5.50241c8.93476,5.62702 18.90941,11.81127 25.22948,18.45244c9.23722,9.70654 12.93995,20.38914 12.93995,31.73462z" fill="#00a273" stroke="#000000" stroke-linecap="butt"/><path d="M128.75,263.9c0,0 8.07631,9.97529 11.43185,15.65391c3.12854,5.29445 8.06814,17.34609 8.06814,17.34609" fill="none" stroke-opacity="0.38824" stroke="#000000" stroke-linecap="round"/><path d="M51.75,280.4c0,0 9.7758,-11.95378 17.08829,-16.56761c6.61812,-4.17572 24.91171,-9.93239 24.91171,-9.93239" fill="none" stroke-opacity="0.38824" stroke="#000000" stroke-linecap="round"/><path d="M104.75,305.4c0,0 -15.07853,-1.91107 -20.42362,-3.98528c-5.78652,-2.24552 -13.07638,-9.01472 -13.07638,-9.01472" fill="none" stroke-opacity="0.38824" stroke="#000000" stroke-linecap="round"/></g><path d="M-4.53125,362.5v-53h491v53z" fill="#66ff68" stroke="#000000" stroke-width="2.5" stroke-linecap="butt"/><path d="M-6.03125,375.5v-53h491v53z" fill="#ec8c5f" stroke="#000000" stroke-width="2" stroke-linecap="butt"/><path d="M119.99925,44.22765c0.30327,0 0.54912,0.25308 0.54912,0.56527c0,0.31219 -0.24585,0.56526 -0.54912,0.56526c-0.30327,0 -0.54912,-0.25308 -0.54912,-0.56526c0,-0.31219 0.24585,-0.56527 0.54912,-0.56527z" data-paper-data="{&quot;index&quot;:null}" fill="#ffffff" stroke="none" stroke-width="0" stroke-linecap="butt"/><path d="M-3.52825,543.00152v-204h485.18318v204z" fill="#d47d55" stroke="none" stroke-width="0" stroke-linecap="butt"/><text transform="translate(6.46875,42.77016) scale(0.91534,0.91534)" font-size="40" xml:space="preserve" fill="url(#color-1)" fill-rule="nonzero" stroke="#000000" stroke-width="2" stroke-linecap="butt" stroke-linejoin="miter" stroke-miterlimit="10" stroke-dasharray="" stroke-dashoffset="0" font-family="&quot;soniclogo_jp&quot;, Sans Serif" font-weight="normal" text-anchor="start" style="mix-blend-mode: normal"><tspan x="0" dy="0">BLOP ADVENTURE</tspan></text><text transform="translate(7.46875,68) scale(0.5,0.5)" font-size="40" xml:space="preserve" fill="#820000" fill-rule="nonzero" stroke="none" stroke-width="1" stroke-linecap="butt" stroke-linejoin="miter" stroke-miterlimit="10" stroke-dasharray="" stroke-dashoffset="0" font-family="&quot;Pusia-Bold&quot;, Sans Serif" font-weight="normal" text-anchor="start" style="mix-blend-mode: normal"><tspan x="0" dy="0">VER 3.0</tspan></text><text transform="translate(106.96875,67.80001) scale(0.5,0.5)" font-size="40" xml:space="preserve" fill="#820000" fill-rule="nonzero" stroke="none" stroke-width="1" stroke-linecap="butt" stroke-linejoin="miter" stroke-miterlimit="10" stroke-dasharray="" stroke-dashoffset="0" font-family="&quot;Pusia-Bold&quot;, Sans Serif" font-weight="normal" text-anchor="start" style="mix-blend-mode: normal"><tspan x="0" dy="0">PC</tspan></text></g></g></svg>