<svg version="1.1" xmlns="http://www.w3.org/2000/svg" xmlns:xlink="http://www.w3.org/1999/xlink" width="654.52626" height="373.78225" viewBox="0,0,654.52626,373.78225"><g transform="translate(83.74671,-69.50517)"><g data-paper-data="{&quot;isPaintingLayer&quot;:true}" fill-rule="nonzero" stroke-linecap="butt" stroke-linejoin="miter" stroke-miterlimit="10" stroke-dasharray="" stroke-dashoffset="0" style="mix-blend-mode: normal"><path d="M269.91731,359.38253l138.21005,-185.97382l22.58791,16.78665l-138.21005,185.97382z" fill="#66ff68" stroke="#000000" stroke-width="2.5"/><path d="M310.66312,312.25658l95.0355,-127.87865l15.53182,11.54278l-95.0355,127.87865z" fill="#ec8c5f" stroke="#000000" stroke-width="0"/><path d="M319.23918,303.23309l80.29281,-108.04106l13.12239,9.75216l-80.29281,108.04106z" fill="#d47d55" stroke="#000000" stroke-width="0"/><path d="M-76.5,442.03742v-132.77463h633v132.77463z" fill="#66ff68" stroke="#000000" stroke-width="2.5"/><path d="M110.1662,192.70637v-58.16135h91.93246v58.16135z" fill="#66ff68" stroke="#000000" stroke-width="2.5"/><path d="M205.85101,127.04035v-56.28518h93.80863v56.28518z" fill="#66ff68" stroke="#000000" stroke-width="2.5"/><path d="M-83.74671,440.53591v-117.79322h647.27955v117.79322z" fill="#ec8c5f" stroke="none" stroke-width="0"/><path d="M-76.5,425.18287v-85.19694h647.27955v85.19694z" fill="#d47d55" stroke="none" stroke-width="0"/><path d="M118.78735,184.49979v-41.74821h74.69015v41.74821z" fill="#ec8c5f" stroke="none" stroke-width="0"/><path d="M219.00005,119.8776v-41.95968h67.51055v41.95968z" fill="#ec8c5f" stroke="none" stroke-width="0"/><path d="M130.31601,176.86488v-26.47838h51.63283v26.47838z" fill="#d47d55" stroke="#000000" stroke-width="0"/><path d="M227.15956,113.90217v-30.00883h51.19153v30.00883z" fill="#d47d55" stroke="none" stroke-width="0"/></g></g></svg>