<svg version="1.1" xmlns="http://www.w3.org/2000/svg" xmlns:xlink="http://www.w3.org/1999/xlink" width="786.41924" height="677.91212" viewBox="0,0,786.41924,677.91212"><g transform="translate(83.74671,235.80415)"><g data-paper-data="{&quot;isPaintingLayer&quot;:true}" fill-rule="nonzero" stroke-linecap="butt" stroke-linejoin="miter" stroke-miterlimit="10" stroke-dasharray="" stroke-dashoffset="0" style="mix-blend-mode: normal"><path d="M147.60903,167.10601v-199.81238h55.34709v199.81239z" fill="#66ff68" stroke="#000000" stroke-width="2.5"/><path d="M147.60903,397.60971v-199.81238h55.34709v199.81238z" fill="#66ff68" stroke="#000000" stroke-width="2.5"/><path d="M-51.26526,440.85797v-189.05214h254.22139v189.05215z" fill="#66ff68" stroke="#000000" stroke-width="2.5"/><path d="M216.26743,-115.29959l66.84669,-84.96401l400.03889,314.73649l-66.84669,84.96401z" fill="#66ff68" stroke="#000000" stroke-width="2.5"/><path d="M235.78695,-130.31461l66.84669,-84.96401l400.03889,314.73649l-66.84669,84.96401z" fill="#ec8c5f" stroke="#000000" stroke-width="0"/><path d="M235.78695,-150.84014l66.84669,-84.96401l400.03889,314.73649l-66.84669,84.96401z" fill="#d47d55" stroke="#000000" stroke-width="0"/><path d="M-25.12255,316.80651v-52.51875h216.50589v52.51876z" fill="#ec8c5f" stroke="none" stroke-width="0"/><path d="M153.04249,241.77971v-33.76206h44.48017v33.76206z" fill="#ec8c5f" stroke="none" stroke-width="0"/><path d="M157.32974,157.23198v-180.06431h35.90568v180.06431z" fill="#ec8c5f" stroke="none" stroke-width="0"/><path d="M-17.08397,308.76792v-36.44158h200.42873v36.44158z" fill="#d47d55" stroke="none" stroke-width="0"/><path d="M160.27722,235.08089v-20.36442h30.01072v20.36442z" fill="#d47d55" stroke="none" stroke-width="0"/><path d="M166.44013,145.42657v-169.8821h17.68489v169.8821z" fill="#d47d55" stroke="none" stroke-width="0"/><path d="M-76.5,425.18288v-115.92008h633v115.92008z" fill="#66ff68" stroke="#000000" stroke-width="2.5"/><path d="M-83.74671,425.18288v-99.43716h647.27955v99.43716z" fill="#ec8c5f" stroke="none" stroke-width="0"/><path d="M-76.5,425.18288v-85.19694h647.27955v85.19694z" fill="#d47d55" stroke="none" stroke-width="0"/></g></g></svg>