<svg version="1.1" xmlns="http://www.w3.org/2000/svg" xmlns:xlink="http://www.w3.org/1999/xlink" width="119.02071" height="105.6956" viewBox="0,0,119.02071,105.6956"><g transform="translate(-19.22205,-82.02903)"><g data-paper-data="{&quot;isPaintingLayer&quot;:true}" fill-rule="nonzero" stroke="#000000" stroke-linejoin="miter" stroke-miterlimit="10" stroke-dasharray="" stroke-dashoffset="0" style="mix-blend-mode: normal"><path d="M30.61568,161.35806v-76.57903h98.87419v76.57903z" fill="none" stroke-width="5.5" stroke-linecap="butt"/><text transform="translate(19.77807,182.72045) scale(0.37068,0.37068)" font-size="40" xml:space="preserve" fill="#ffffff" fill-rule="nonzero" stroke="#000000" stroke-width="3" stroke-linecap="butt" stroke-linejoin="miter" stroke-miterlimit="10" stroke-dasharray="" stroke-dashoffset="0" font-family="&quot;soniclogo_jp&quot;, Sans Serif" font-weight="normal" text-anchor="start" style="mix-blend-mode: normal"><tspan x="0" dy="0">Аксолотль</tspan></text><g stroke-width="2"><path d="M98.86752,141.13524c0,3.28752 -1.48059,5.57463 -3.30698,5.57463c-1.8264,0 -4.62978,-3.23197 -4.62978,-6.51949c0,-3.28752 2.80339,-2.92904 4.62978,-2.92904c1.8264,0 3.30698,0.58639 3.30698,3.87389z" fill="#ffcde6" stroke-linecap="butt"/><path d="M63.34103,138.30067c0,2.1395 -4.69309,6.70845 -6.51949,6.70845c-1.8264,0 -3.68493,-4.37999 -3.68493,-6.51949c0,-2.1395 1.85853,-2.55111 3.68493,-2.55111c1.8264,0 6.51949,0.22263 6.51949,2.36213z" fill="#ffcde6" stroke-linecap="butt"/><path d="M79.31648,104.91158c1.31468,2.25371 -9.88254,7.21849 -20.11444,13.1871c-10.23189,5.96861 -17.32457,18.05069 -18.63925,15.79698c-1.31468,-2.25371 5.72518,-21.01334 15.95708,-26.98196c2.67432,-1.56001 5.51544,-2.90516 8.04022,-4.24118c2.60063,-1.37615 4.87715,-2.71957 7.09248,-2.67311c3.86255,0.08099 7.04678,3.85426 7.66389,4.91217z" fill="#ff81c1" stroke-linecap="butt"/><path d="M90.98637,100.50806c0.537,1.86033 1.88722,6.30531 1.29491,7.57666c-0.41333,0.88718 -2.54819,-1.12837 -3.29003,-0.91424c-1.80489,0.521 -3.0623,-1.61716 -3.97406,-4.77573c-0.91175,-3.15856 -2.26639,-6.14143 -0.4615,-6.66243c1.80489,-0.521 5.51893,1.61716 6.43067,4.77573z" fill="#ff81c1" stroke-linecap="butt"/><path d="M101.60443,108.62663c-0.28241,0.86118 -4.02648,-2.24064 -4.78069,-1.89432c-1.84947,0.84925 -4.3373,-0.61514 -5.55673,-3.27078c-1.21944,-2.65565 -1.2756,-6.63075 0.57387,-7.48c0.91083,-0.41824 3.39206,1.58322 5.62697,4.63911c2.30314,3.14916 4.34472,7.37128 4.13658,8.00598z" fill="#ff81c1" stroke-linecap="butt"/><path d="M122.67786,123.65545c0,4.12043 -1.46502,9.06041 -5.54066,12.13673c-3.01038,2.27226 -12.01603,2.89857 -21.46886,3.29667c-9.51635,0.40077 -19.48588,0.56004 -24.24792,-1.12992c-2.9228,-1.03725 -31.88967,0.76542 -31.88967,-1.64245c0,-5.95358 12.66614,-23.25727 32.75701,-29.67805c3.67243,-1.17367 5.90238,-1.8313 10.32481,-1.85946c8.85803,-0.05642 16.43572,2.03236 22.34433,3.38485c1.26304,0.28911 2.83242,0.10286 4.20976,0.25144c1.59704,0.17227 2.93586,0.66452 3.23942,0.80547c7.31531,3.39698 10.27176,8.70663 10.27176,14.43469z" fill="#ffcde6" stroke-linecap="butt"/><path d="M113.41828,121.29332c0,0.70448 -0.18898,2.56847 -0.75589,2.56847c-0.56691,0 -0.75587,-1.86399 -0.75587,-2.56847c0,-1.40893 0.12969,-2.55109 0.75587,-2.55109c0.6262,0 0.75589,1.14216 0.75589,2.55109z" fill="#000000" stroke-linecap="butt"/><path d="M103.40283,120.63194c0,0 -4.33877,-1.95196 -5.97122,-4.61185c-1.59851,-2.60458 -0.11525,-5.34439 0.04949,-5.98684c0.14817,-0.57789 2.45259,-1.28709 4.49606,-0.17292c1.97476,1.0767 3.31539,3.40175 3.31539,3.40175" fill="#ff84c3" stroke-linecap="round"/><path d="M102.64696,127.05692c0,0 -4.15208,-0.25554 -5.88357,-1.70682c-0.63135,-0.52918 -1.77012,-1.77921 -2.21974,-3.0839c-0.36066,-1.04653 -0.14313,-2.12822 0.12413,-2.90123c0.1812,-0.52409 1.15501,-1.56759 2.31768,-1.87517c1.08275,-0.28643 2.35438,0.14065 2.64417,0.24554c2.12065,0.76764 3.58424,2.51863 3.58424,2.51863" fill="#ff84c3" stroke-linecap="round"/><path d="M102.8359,134.99369c0,0 -0.97658,0.65984 -2.27251,0.40245c-0.83175,-0.16519 -4.79846,-0.98811 -5.98822,-2.76889c-1.41886,-2.12371 0.07447,-5.2906 1.26063,-5.93386c2.3951,-1.2989 7.00009,0.5525 7.00009,0.5525" fill="#ff84c3" stroke-linecap="round"/></g></g></g></svg>