<svg version="1.1" xmlns="http://www.w3.org/2000/svg" xmlns:xlink="http://www.w3.org/1999/xlink" width="392.81911" height="91.10077" viewBox="0,0,392.81911,91.10077"><g transform="translate(-34,-232.15001)"><g data-paper-data="{&quot;isPaintingLayer&quot;:true}" fill-rule="nonzero" stroke-width="2.5" stroke-linejoin="miter" stroke-miterlimit="10" stroke-dasharray="" stroke-dashoffset="0" style="mix-blend-mode: normal"><path d="M178.25,295.15c0,28.85688 -36.89235,20.25 -75,20.25c-38.10765,0 -68,3.60688 -68,-25.25c0,-10.35372 2.8233,-21.98801 9.79475,-30.33294c4.01607,-4.8073 11.41096,-9.35264 16.86441,-13.71824c6.76782,-5.41777 14.70452,-8.86443 23.47803,-10.77914c6.0883,-1.32869 12.57957,-1.91967 19.36282,-1.91967c9.10108,0 17.88323,2.24689 25.92029,6.06053c3.33191,1.58102 6.12171,3.43131 9.41027,5.50241c8.93476,5.62702 18.90941,11.81127 25.22948,18.45244c9.23722,9.70654 12.93995,20.38914 12.93995,31.73462z" fill="#00a273" stroke="#000000" stroke-linecap="butt"/><path d="M128.75,263.9c0,0 8.07631,9.97529 11.43185,15.65391c3.12854,5.29445 8.06814,17.34609 8.06814,17.34609" fill="none" stroke-opacity="0.38824" stroke="#000000" stroke-linecap="round"/><path d="M51.75,280.4c0,0 9.7758,-11.95378 17.08829,-16.56761c6.61812,-4.17572 24.91171,-9.93239 24.91171,-9.93239" fill="none" stroke-opacity="0.38824" stroke="#000000" stroke-linecap="round"/><path d="M104.75,305.4c0,0 -15.07853,-1.91107 -20.42362,-3.98528c-5.78652,-2.24552 -13.07638,-9.01472 -13.07638,-9.01472" fill="none" stroke-opacity="0.38824" stroke="#000000" stroke-linecap="round"/><path d="M425.56911,300.54921c0,28.85688 -36.89235,20.25 -75,20.25c-38.10765,0 -68,3.60688 -68,-25.25c0,-10.35372 2.8233,-21.98801 9.79475,-30.33294c4.01607,-4.8073 11.41096,-9.35264 16.86441,-13.71824c6.76782,-5.41777 14.70452,-8.86443 23.47803,-10.77914c6.0883,-1.32869 12.57957,-1.91967 19.36282,-1.91967c9.10108,0 17.88323,2.24689 25.92029,6.06053c3.33191,1.58102 6.12171,3.43131 9.41027,5.50241c8.93476,5.62702 18.90941,11.81127 25.22948,18.45244c9.23722,9.70654 12.93995,20.38914 12.93995,31.73462z" fill="#00a273" stroke="#000000" stroke-linecap="butt"/><path d="M376.06911,269.29921c0,0 8.07631,9.97529 11.43185,15.65391c3.12854,5.29445 8.06814,17.34609 8.06814,17.34609" fill="none" stroke-opacity="0.38824" stroke="#000000" stroke-linecap="round"/><path d="M299.06911,285.79921c0,0 9.7758,-11.95378 17.08829,-16.56761c6.61812,-4.17572 24.91171,-9.93239 24.91171,-9.93239" fill="none" stroke-opacity="0.38824" stroke="#000000" stroke-linecap="round"/><path d="M352.06911,310.79921c0,0 -15.07853,-1.91107 -20.42362,-3.98528c-5.78652,-2.24552 -13.07638,-9.01472 -13.07638,-9.01472" fill="none" stroke-opacity="0.38824" stroke="#000000" stroke-linecap="round"/></g></g></svg>