<svg version="1.1" xmlns="http://www.w3.org/2000/svg" xmlns:xlink="http://www.w3.org/1999/xlink" width="207.90297" height="98.49119" viewBox="0,0,207.90297,98.49119"><defs><radialGradient cx="147.94605" cy="228.3129" r="37.10827" gradientUnits="userSpaceOnUse" id="color-1"><stop offset="0" stop-color="#9c9c9c"/><stop offset="1" stop-color="#7c7c7c"/></radialGradient><radialGradient cx="170.00002" cy="235.52159" r="37.10827" gradientUnits="userSpaceOnUse" id="color-2"><stop offset="0" stop-color="#ffffff"/><stop offset="1" stop-color="#7c7c7c"/></radialGradient><radialGradient cx="143.913" cy="259.29832" r="9.36313" gradientUnits="userSpaceOnUse" id="color-3"><stop offset="0" stop-color="#9c9c9c"/><stop offset="1" stop-color="#7c7c7c"/></radialGradient><radialGradient cx="200.67082" cy="268.6432" r="9.22544" gradientUnits="userSpaceOnUse" id="color-4"><stop offset="0" stop-color="#9c9c9c"/><stop offset="1" stop-color="#7c7c7c"/></radialGradient><radialGradient cx="153.74971" cy="281.72602" r="9.56967" gradientUnits="userSpaceOnUse" id="color-5"><stop offset="0" stop-color="#9c9c9c"/><stop offset="1" stop-color="#7c7c7c"/></radialGradient><radialGradient cx="187.48963" cy="280.74236" r="9.50082" gradientUnits="userSpaceOnUse" id="color-6"><stop offset="0" stop-color="#9c9c9c"/><stop offset="1" stop-color="#7c7c7c"/></radialGradient><radialGradient cx="188.37493" cy="252.01916" r="26.29938" gradientUnits="userSpaceOnUse" id="color-7"><stop offset="0" stop-color="#9c9c9c"/><stop offset="1" stop-color="#7c7c7c"/></radialGradient><radialGradient cx="189.45697" cy="271.00401" r="26.29938" gradientUnits="userSpaceOnUse" id="color-8"><stop offset="0" stop-color="#9c9c9c"/><stop offset="1" stop-color="#7c7c7c"/></radialGradient><radialGradient cx="155.71705" cy="226.64044" r="2.89155" gradientUnits="userSpaceOnUse" id="color-9"><stop offset="0" stop-color="#9c9c9c"/><stop offset="1" stop-color="#7c7c7c"/></radialGradient><radialGradient cx="184.04678" cy="228.70615" r="3.00877" gradientUnits="userSpaceOnUse" id="color-10"><stop offset="0" stop-color="#9c9c9c"/><stop offset="1" stop-color="#7c7c7c"/></radialGradient><radialGradient cx="169.88191" cy="237.65756" r="13.53982" gradientUnits="userSpaceOnUse" id="color-11"><stop offset="0" stop-color="#9c9c9c"/><stop offset="1" stop-color="#7c7c7c"/></radialGradient><radialGradient cx="168.70151" cy="231.95227" r="13.53983" gradientUnits="userSpaceOnUse" id="color-12"><stop offset="0" stop-color="#9c9c9c"/><stop offset="1" stop-color="#7c7c7c"/></radialGradient><radialGradient cx="172.24273" cy="239.13307" r="5.62247" gradientUnits="userSpaceOnUse" id="color-13"><stop offset="0" stop-color="#9c9c9c"/><stop offset="1" stop-color="#7c7c7c"/></radialGradient><radialGradient cx="173.02966" cy="236.08369" r="5.62247" gradientUnits="userSpaceOnUse" id="color-14"><stop offset="0" stop-color="#9c9c9c"/><stop offset="1" stop-color="#7c7c7c"/></radialGradient><radialGradient cx="143.3228" cy="237.65756" r="3.46801" gradientUnits="userSpaceOnUse" id="color-15"><stop offset="0" stop-color="#9c9c9c"/><stop offset="1" stop-color="#7c7c7c"/></radialGradient><radialGradient cx="166.3407" cy="223.88617" r="2.95423" gradientUnits="userSpaceOnUse" id="color-16"><stop offset="0" stop-color="#9c9c9c"/><stop offset="1" stop-color="#7c7c7c"/></radialGradient><radialGradient cx="175.19374" cy="222.60739" r="2.90285" gradientUnits="userSpaceOnUse" id="color-17"><stop offset="0" stop-color="#9c9c9c"/><stop offset="1" stop-color="#7c7c7c"/></radialGradient><radialGradient cx="199.49041" cy="235.39512" r="3.28819" gradientUnits="userSpaceOnUse" id="color-18"><stop offset="0" stop-color="#9c9c9c"/><stop offset="1" stop-color="#7c7c7c"/></radialGradient><radialGradient cx="150.60196" cy="305.92433" r="32.47898" gradientUnits="userSpaceOnUse" id="color-19"><stop offset="0" stop-color="#9c9c9c"/><stop offset="1" stop-color="#7c7c7c"/></radialGradient></defs><g transform="translate(0,-216.36038)"><g data-paper-data="{&quot;isPaintingLayer&quot;:true}" fill-rule="nonzero" stroke-linejoin="miter" stroke-miterlimit="10" stroke-dasharray="" stroke-dashoffset="0" style="mix-blend-mode: normal"><path d="M144.25,292.15c0,28.85688 -36.89235,20.25 -75,20.25c-38.10765,0 -68,3.60688 -68,-25.25c0,-10.35372 2.8233,-21.98801 9.79475,-30.33294c4.01607,-4.8073 11.41096,-9.35264 16.86441,-13.71824c6.76782,-5.41777 14.70452,-8.86443 23.47803,-10.77914c6.0883,-1.32869 12.57957,-1.91967 19.36282,-1.91967c9.10108,0 17.88323,2.24689 25.92029,6.06053c3.33191,1.58102 6.12171,3.43131 9.41027,5.50241c8.93476,5.62702 18.90941,11.81127 25.22948,18.45244c9.23722,9.70654 12.93995,20.38914 12.93995,31.73462z" fill="#00a273" stroke="#000000" stroke-width="2.5" stroke-linecap="butt"/><path d="M94.75,260.9c0,0 8.07631,9.97529 11.43185,15.65391c3.12854,5.29445 8.06814,17.34609 8.06814,17.34609" fill="none" stroke-opacity="0.38824" stroke="#000000" stroke-width="2.5" stroke-linecap="round"/><path d="M17.75,277.4c0,0 9.7758,-11.95378 17.08829,-16.56761c6.61812,-4.17572 24.91171,-9.93239 24.91171,-9.93239" fill="none" stroke-opacity="0.38824" stroke="#000000" stroke-width="2.5" stroke-linecap="round"/><path d="M70.75,302.4c0,0 -15.07853,-1.91107 -20.42362,-3.98528c-5.78652,-2.24552 -13.07638,-9.01472 -13.07638,-9.01472" fill="none" stroke-opacity="0.38824" stroke="#000000" stroke-width="2.5" stroke-linecap="round"/><path d="M143.76947,253.03801c0,0 -2.94014,0.27551 -4.40939,0.34439c-1.46819,0.06883 -4.40295,0.06869 -4.40295,0.06869l-2.06539,-1.79001c0,0 1.53273,-6.60569 2.66498,-9.48162c1.16187,-2.95114 4.21967,-8.00541 4.21967,-8.00541c0,0 -0.57742,-0.39625 -0.84518,-0.72139c-0.35165,-0.42702 -1.08253,-1.61939 -1.08253,-1.61939c0,0 2.33312,-2.46968 3.89682,-3.66347c2.36429,-1.805 8.90864,-6.11275 8.90864,-6.11275l1.79001,1.37693c0,0 3.28683,-1.47463 4.96246,-2.086c1.71966,-0.62745 5.22683,-1.63171 5.22683,-1.63171c0,0 -0.49478,-0.76519 -0.66183,-1.12316c-0.15301,-0.32787 -0.30201,-0.94223 -0.30201,-0.94223c0,0 5.04864,-0.49652 7.71553,-0.5406c2.87157,-0.04745 8.94534,0.26522 8.94534,0.26522c0,0 -0.08947,0.5192 -0.22573,0.83066c-0.17516,0.40036 -0.73812,1.37243 -0.73812,1.37243c0,0 3.88587,1.38999 5.71662,2.1746c1.69249,0.72535 4.88573,2.36927 4.88573,2.36927l1.79001,-1.92771c0,0 5.6035,3.95838 7.86551,5.66746c1.71605,1.29657 4.52687,3.69567 4.52687,3.69567c0,0 -0.41504,1.0924 -0.67619,1.54349c-0.2423,0.41855 -0.83843,1.0727 -0.83843,1.0727c0,0 3.60914,8.08879 4.80259,11.2121c0.82194,2.15104 1.66896,5.72415 1.66896,5.72415c0,0 -0.60087,1.14001 -0.93863,1.59842c-0.30039,0.40769 -0.98907,1.01774 -0.98907,1.01774c0,0 -2.86016,0.1846 -4.27186,0.20773c-1.38763,0.02275 -4.12742,-0.07004 -4.12742,-0.07004z" fill="url(#color-1)" stroke="url(#color-2)" stroke-width="1.5" stroke-linecap="round"/><path d="M137.29789,277.68508c0,0 -0.47986,-2.15891 -0.24076,-2.7396c0.96306,-2.33887 7.12541,-15.98666 7.12541,-15.98666" fill="none" stroke="url(#color-3)" stroke-width="2" stroke-linecap="round"/><path d="M195.54207,259.50959c0,0 5.46715,12.44601 6.43904,15.34006c0.35269,1.0502 0.17022,3.11082 0.17022,3.11082" fill="none" stroke="url(#color-4)" stroke-width="2" stroke-linecap="round"/><path d="M153.54568,273.1412l-0.82616,18.86396l-3.8554,0.27539" fill="none" stroke="url(#color-5)" stroke-width="2.5" stroke-linecap="round"/><path d="M190.72281,292.24122l-3.30463,0.13769l-0.96385,-19.00164" fill="none" stroke="url(#color-6)" stroke-width="2.5" stroke-linecap="round"/><path d="M143.90716,252.34955c0,-14.52474 11.77463,-26.29938 26.29938,-26.29938c14.52474,0 26.29938,11.77464 26.29938,26.29938c0,14.52474 -11.77464,26.29938 -26.29938,26.29938c-14.52474,0 -26.29938,-11.77464 -26.29938,-26.29938z" fill="url(#color-7)" stroke="url(#color-8)" stroke-width="1.5" stroke-linecap="butt"/><path d="M152.27313,223.34383l5.78311,5.09465" fill="none" stroke="url(#color-9)" stroke-width="1.5" stroke-linecap="round"/><path d="M183.12498,229.33009l5.59704,-6.01755" fill="none" stroke="url(#color-10)" stroke-width="1.5" stroke-linecap="round"/><path d="M183.74637,241.35446c0,5.59783 -6.06197,10.13574 -13.53983,10.13574c-7.47783,0 -13.53982,-4.53791 -13.53982,-10.13574c0,-5.59782 6.06199,-10.13575 13.53982,-10.13575c7.47783,0 13.53983,4.53792 13.53983,10.13575z" fill="url(#color-11)" stroke="url(#color-12)" stroke-width="1.5" stroke-linecap="butt"/><path d="M175.48478,241.35446c0,3.10521 -2.36314,5.62247 -5.27824,5.62247c-2.91509,0 -5.27824,-2.51726 -5.27824,-5.62247c0,-3.10521 2.36314,-5.62246 5.27824,-5.62246c2.91509,0 5.27824,2.51726 5.27824,5.62246z" fill="url(#color-13)" stroke="url(#color-14)" stroke-width="1.5" stroke-linecap="butt"/><path d="M146.8255,239.37052l-6.93603,-5.13779" fill="none" stroke="url(#color-15)" stroke-width="1.5" stroke-linecap="round"/><path d="M166.81157,225.93629l-3.95611,-5.90846" fill="none" stroke="url(#color-16)" stroke-width="1.5" stroke-linecap="round"/><path d="M173.91738,225.80896l3.18545,-5.8057" fill="none" stroke="url(#color-17)" stroke-width="1.5" stroke-linecap="round"/><path d="M193.72695,239.19181l6.57639,-4.82953" fill="none" stroke="url(#color-18)" stroke-width="1.5" stroke-linecap="round"/><path d="M136.68515,311.19462l3.90131,-18.12959h59.56498l1.49167,18.01485z" fill="url(#color-19)" stroke="#171717" stroke-width="1.5" stroke-linecap="butt"/><path d="M150.20574,303.19357l-0.94291,-5.8289" fill="none" stroke="#000000" stroke-width="2" stroke-linecap="round"/><path d="M144.2054,297.70755l9.51483,-0.85719" fill="none" stroke="#000000" stroke-width="2" stroke-linecap="round"/><path d="M155.8632,296.1646l1.71438,3.42877" fill="none" stroke="#000000" stroke-width="2" stroke-linecap="round"/><path d="M160.57776,295.47885l-5.22887,7.54328" fill="none" stroke="#000000" stroke-width="2" stroke-linecap="round"/><path d="M168.20676,296.5932v6.51466l-5.14315,0.08572l-0.25716,-7.20041" fill="none" stroke="#000000" stroke-width="2" stroke-linecap="round"/><path d="M168.03533,302.8507l2.14298,0.60003l-0.17144,1.97154" fill="none" stroke="#000000" stroke-width="2" stroke-linecap="round"/><path d="M177.06413,303.27929l-0.94291,-5.8289" fill="none" stroke="#000000" stroke-width="2" stroke-linecap="round"/><path d="M171.06379,297.79326l9.51483,-0.85719" fill="none" stroke="#000000" stroke-width="2" stroke-linecap="round"/><path d="M184.43597,299.67909l-1.71438,-3.42877" fill="none" stroke="#000000" stroke-width="2" stroke-linecap="round"/><path d="M182.20728,303.10785l5.22887,-7.54328" fill="none" stroke="#000000" stroke-width="2" stroke-linecap="round"/><path d="M195.06516,296.67892v6.51466l-5.14315,0.08572l-0.25716,-7.20041" fill="none" stroke="#000000" stroke-width="2" stroke-linecap="round"/><path d="M194.89372,302.93642l2.14298,0.60003l-0.17144,1.97154" fill="none" stroke="#000000" stroke-width="2" stroke-linecap="round"/></g></g></svg>