<svg version="1.1" xmlns="http://www.w3.org/2000/svg" xmlns:xlink="http://www.w3.org/1999/xlink" width="654.52626" height="298.10028" viewBox="0,0,654.52626,298.10028"><g transform="translate(83.74671,-128.33258)"><g data-paper-data="{&quot;isPaintingLayer&quot;:true}" fill-rule="nonzero" stroke-linecap="butt" stroke-linejoin="miter" stroke-miterlimit="10" stroke-dasharray="" stroke-dashoffset="0" style="mix-blend-mode: normal"><path d="M-76.5,425.18287v-115.92008h633v115.92008z" fill="#66ff68" stroke="#000000" stroke-width="2.5"/><path d="M-8.99513,260.14914l11.85783,-31.62087l148.44243,55.66591l-11.85783,31.62087z" fill="#66ff68" stroke="#000000" stroke-width="2.5"/><path d="M363.36888,199.93906v-70.35647h168.85553v70.35647z" fill="#66ff68" stroke="#000000" stroke-width="2.5"/><path d="M177.57962,228.93182l-7.66363,-38.64711l132.50438,-26.2753l7.66363,38.64711z" fill="#66ff68" stroke="#000000" stroke-width="2.5"/><path d="M-83.74671,425.18288v-99.43716h647.27955v99.43716z" fill="#ec8c5f" stroke="none" stroke-width="0"/><path d="M-76.5,425.18288v-85.19694c0,0 122.82589,0 203.80021,0c119.44877,0 443.47934,0 443.47934,0v85.19694z" fill="#d47d55" stroke="none" stroke-width="0"/><path d="M378.55735,188.34067v-47.1597h180.06431v47.1597z" fill="#ec8c5f" stroke="none" stroke-width="0"/><path d="M189.29812,221.81735l-5.83482,-29.43804l107.23857,-21.25542l5.83482,29.43804z" fill="#ec8c5f" stroke="none" stroke-width="0"/><path d="M1.40719,259.75148l9.03247,-24.0855l130.46315,48.92587l-9.03247,24.0855z" fill="#ec8c5f" stroke="none" stroke-width="0"/><path d="M393.11621,180.8685v-32.21536h137.68756v32.21536z" fill="#d47d55" stroke="none" stroke-width="0"/><path d="M195.9489,218.13003l-5.00537,-23.41796l93.10756,-19.90085l5.00537,23.41796z" fill="#d47d55" stroke="none" stroke-width="0"/><path d="M22.05652,265.1719l6.55602,-18.49135l91.64094,32.49088l-6.55602,18.49135z" fill="#d47d55" stroke="none" stroke-width="0"/></g></g></svg>