<svg version="1.1" xmlns="http://www.w3.org/2000/svg" xmlns:xlink="http://www.w3.org/1999/xlink" width="403.00197" height="250.57908" viewBox="0,0,403.00197,250.57908"><g transform="translate(-123.49937,-57.62284)"><g data-paper-data="{&quot;isPaintingLayer&quot;:true}" fill="#565656" fill-rule="nonzero" stroke="#000000" stroke-width="2.5" stroke-linecap="round" stroke-linejoin="miter" stroke-miterlimit="10" stroke-dasharray="" stroke-dashoffset="0" style="mix-blend-mode: normal"><path d="M125.47059,306.95191l21.4977,-45.60118l21.4977,45.60118z"/><path d="M134.46233,86.62174l12.28897,-26.06751l12.28897,26.06751z"/><path d="M158.89488,86.62175l12.28897,-26.06751l12.28897,26.06751z"/><path d="M183.11854,86.62174l12.28897,-26.06751l12.28897,26.06751z"/><path d="M207.55109,86.62175l12.28897,-26.06751l12.28897,26.06751z"/><path d="M231.54964,86.62175l12.28897,-26.06751l12.28897,26.06751z"/><path d="M255.98219,86.62176l12.28897,-26.06751l12.28897,26.06751z"/><path d="M280.20585,86.62175l12.28897,-26.06751l12.28897,26.06751z"/><path d="M304.6384,86.62176l12.28897,-26.06751l12.28897,26.06751z"/><path d="M329.77611,86.62173l12.28897,-26.06751l12.28897,26.06751z"/><path d="M354.20866,86.62174l12.28897,-26.06751l12.28897,26.06751z"/><path d="M378.43231,86.62173l12.28897,-26.06751l12.28897,26.06751z"/><path d="M402.86486,86.62174l12.28897,-26.06751l12.28897,26.06751z"/><path d="M426.86342,86.62174l12.28897,-26.06751l12.28897,26.06751z"/><path d="M451.29597,86.62175l12.28897,-26.06751l12.28897,26.06751z"/><path d="M475.51962,86.62173l12.28897,-26.06751l12.28897,26.06751z"/><path d="M499.95217,86.62174l12.28897,-26.06751l12.28897,26.06751z"/><path d="M280.20585,161.73432l-14.53632,30.83462l-14.53632,-30.83462z"/><path d="M251.30519,161.73431l-14.53632,30.83462l-14.53632,-30.83462z"/><path d="M222.65162,161.73432l-14.53632,30.83462l-14.53632,-30.83462z"/></g></g></svg>