<svg version="1.1" xmlns="http://www.w3.org/2000/svg" xmlns:xlink="http://www.w3.org/1999/xlink" width="654.52626" height="368.6044" viewBox="0,0,654.52626,368.6044"><g transform="translate(83.74671,-97.43693)"><g data-paper-data="{&quot;isPaintingLayer&quot;:true}" fill-rule="nonzero" stroke-linecap="butt" stroke-linejoin="miter" stroke-miterlimit="10" stroke-dasharray="" stroke-dashoffset="0" style="mix-blend-mode: normal"><path d="M245.03385,271.9475v-173.26057h61.39154v173.26057z" fill="#66ff68" stroke="#000000" stroke-width="2.5"/><path d="M256.63003,257.96388v-145.29332h38.19918v145.29332z" fill="#ec8c5f" stroke="none" stroke-width="0"/><path d="M267.03248,269.5307v-146.65757h17.39427v146.65757z" fill="#d47d55" stroke="none" stroke-width="0"/><path d="M140.66823,276.7224v-98.90859h57.29877v98.90859z" fill="#66ff68" stroke="#000000" stroke-width="2.5"/><path d="M149.87696,260.35133v-66.16644h38.88131v66.16644z" fill="#ec8c5f" stroke="none" stroke-width="0"/><path d="M156.69824,265.80836v-66.16644h25.23874v66.16644z" fill="#d47d55" stroke="none" stroke-width="0"/><path d="M-20.04094,339.75467v-121.41883h89.3588v121.41883z" fill="#66ff68" stroke="#000000" stroke-width="2.5"/><path d="M69.31786,309.26282v-51.36353h441.20317v51.36353z" fill="#66ff68" stroke="#000000" stroke-width="2.5"/><path d="M54.59937,313.68242v-40.54123h437.56571v40.54123z" fill="#ec8c5f" stroke="none" stroke-width="0"/><path d="M-13.90179,314.7879v-85.19694h77.08049v85.19694z" fill="#ec8c5f" stroke="none" stroke-width="0"/><path d="M-10.15008,314.78789v-75.68169h69.57708v75.68169z" fill="#d47d55" stroke="none" stroke-width="0"/><path d="M34.20975,308.80705v-30.79048h450.78182v30.79048z" fill="#d47d55" stroke="none" stroke-width="0"/><path d="M-76.5,464.79134v-155.52853h633v155.52853z" fill="#66ff68" stroke="#000000" stroke-width="2.5"/><path d="M-83.74671,447.16455v-121.41883h647.27955v121.41883z" fill="#ec8c5f" stroke="none" stroke-width="0"/><path d="M-76.5,425.18288v-85.19694h647.27955v85.19694z" fill="#d47d55" stroke="none" stroke-width="0"/></g></g></svg>