<svg version="1.1" xmlns="http://www.w3.org/2000/svg" xmlns:xlink="http://www.w3.org/1999/xlink" width="470.65792" height="222.11681" viewBox="0,0,470.65792,222.11681"><g transform="translate(-10.80626,-88.2778)"><g data-paper-data="{&quot;isPaintingLayer&quot;:true}" fill-rule="nonzero" stroke="#000000" stroke-width="2.5" stroke-linecap="round" stroke-linejoin="miter" stroke-miterlimit="10" stroke-dasharray="" stroke-dashoffset="0" style="mix-blend-mode: normal"><path d="M202.67517,308.95189l12.28897,-26.06751l12.28897,26.06751z" fill="#565656"/><path d="M227.10772,308.95191l12.28897,-26.06751l12.28897,26.06751z" fill="#565656"/><path d="M213.85417,121.52779l-18.03834,38.26314l-18.03834,-38.26314z" fill="#565656"/><path d="M246.1393,121.52779l-18.03834,38.26314l-18.03833,-38.26314z" fill="#565656"/><path d="M278.42443,121.52779l-18.03834,38.26314l-18.03833,-38.26314z" fill="#565656"/><path d="M309.3453,121.52779l-18.03834,38.26314l-18.03834,-38.26314z" fill="#565656"/><path d="M174.34075,89.5278l-21.80999,46.26361l-21.80999,-46.26361z" fill="#565656"/><path d="M133.20251,89.5278l-21.80999,46.26361l-21.80999,-46.26361z" fill="#565656"/><path d="M96.90407,89.5278l-21.80999,46.26361l-21.80999,-46.26361z" fill="#565656"/><path d="M56.39747,89.5278l-21.80999,46.26361l-21.80999,-46.2636z" fill="#565656"/><path d="M480.21415,259.42339l-26.06751,-12.28897l26.06751,-12.28897z" fill="#565656"/><path d="M480.21417,234.99084l-26.06751,-12.28897l26.06751,-12.28897z" fill="#565656"/><path d="M480.21416,308.42339l-26.06751,-12.28897l26.06751,-12.28897z" fill="#565656"/><path d="M480.21418,283.99084l-26.06751,-12.28897l26.06751,-12.28897z" fill="#565656"/></g></g></svg>