<svg version="1.1" xmlns="http://www.w3.org/2000/svg" xmlns:xlink="http://www.w3.org/1999/xlink" width="852.33814" height="568.56607" viewBox="0,0,852.33814,568.56607"><g transform="translate(84.4102,135.21399)"><g data-paper-data="{&quot;isPaintingLayer&quot;:true}" fill-rule="nonzero" stroke-linecap="butt" stroke-linejoin="miter" stroke-miterlimit="10" stroke-dasharray="" stroke-dashoffset="0" style="mix-blend-mode: normal"><path d="M-76.5,425.18288v-115.92009h633v115.92009z" fill="#66ff68" stroke="#000000" stroke-width="2.5"/><path d="M-30.32696,269.93868v-35.47067h175.98909v35.47067z" fill="#66ff68" stroke="#000000" stroke-width="2.5"/><path d="M258.74193,247.53252v-24.23543h147.72072v24.23543z" fill="#696969" stroke="#000000" stroke-width="2.5"/><path d="M316.51763,94.89015v-27.80229h89.14387v27.80229z" fill="#696969" stroke="#000000" stroke-width="2.5"/><path d="M272.25611,171.77686v-25.88147h64.89122v25.88147z" fill="#696969" stroke="#000000" stroke-width="2.5"/><path d="M87.36571,128.22405v-26.79528h145.23044v26.79528z" fill="#696969" stroke="#000000" stroke-width="2.5"/><path d="M-83.1602,42.34053v-90.99437h305.81614v90.99437z" fill="#66ff68" stroke="#000000" stroke-width="2.5"/><path d="M-83.74671,425.18287v-99.43717h647.27955v99.43717z" fill="#ec8c5f" stroke="none" stroke-width="0"/><path d="M-76.5,425.18288v-85.19694h647.27955v85.19694z" fill="#d47d55" stroke="none" stroke-width="0"/><path d="M-16.34333,265.16378v-25.92087h148.02183v25.92087z" fill="#ec8c5f" stroke="none" stroke-width="0"/><path d="M-9.52205,261.07101v-17.73533h134.37926v17.73533z" fill="#d47d55" stroke="none" stroke-width="0"/><path d="M-4.99355,31.89759v-40.72883h214.36227v40.72883z" fill="#ec8c5f" stroke="none" stroke-width="0"/><path d="M-10.35261,23.19771v-35.90568h206.85959v35.90568z" fill="#d47d55" stroke="none" stroke-width="0"/><path d="M401.37237,432.10209v-566.06607h175.67568v566.06607z" fill="#66ff68" stroke="#000000" stroke-width="2.5"/><path d="M421.08109,426.24625v-492.49249h235.73574v492.49249z" fill="#ec8c5f" stroke="none" stroke-width="0"/><path d="M443.60361,420.99099v-481.98198h324.32432v481.98198z" fill="#d47d55" stroke="none" stroke-width="0"/></g></g></svg>