<svg version="1.1" xmlns="http://www.w3.org/2000/svg" xmlns:xlink="http://www.w3.org/1999/xlink" width="38.15259" height="39.29469" viewBox="0,0,38.15259,39.29469"><g transform="translate(-220.73912,-162.5)"><g data-paper-data="{&quot;isPaintingLayer&quot;:true}" fill-rule="nonzero" stroke="#000000" stroke-linejoin="miter" stroke-miterlimit="10" stroke-dasharray="" stroke-dashoffset="0" style="mix-blend-mode: normal"><path d="M248.13702,200.59383l-5.37104,-7.29446l5.59452,-4.53226l8.70437,8.49446z" data-paper-data="{&quot;index&quot;:null}" fill="#9966ff" stroke-width="2" stroke-linecap="butt"/><path d="M222.56597,197.26156l8.70437,-8.49446l5.59451,4.53226l-5.37104,7.29446z" fill="#9966ff" stroke-width="2" stroke-linecap="butt"/><path d="M223.5,179.41379c0,-5.39886 10.98507,-15.91379 16.48208,-15.91379c5.50299,0 16.51792,9.75656 16.51792,14.98047c0,5.72934 -11.23798,18.01953 -16.78458,18.01953c-5.45175,0 -16.21542,-11.49201 -16.21542,-17.08621z" fill="#9966ff" stroke-width="2" stroke-linecap="butt"/><path d="M246.66667,180c0,6.66423 -2.98477,12.06667 -6.66667,12.06667c-3.6819,0 -6.66667,-5.40243 -6.66667,-12.06666c0,-6.66423 2.98477,-12.06666 6.66667,-12.06666c3.6819,0 6.66667,5.40243 6.66667,12.06667z" fill="#9966ff" stroke-width="2" stroke-linecap="butt"/><path d="M239.96834,177.20928v-2.98182" fill="none" stroke-width="1.5" stroke-linecap="round"/><path d="M238.33197,178.40928l-2.58182,-1.23636" fill="none" stroke-width="1.5" stroke-linecap="round"/><path d="M238.22288,180.44564h-2.98182" fill="none" stroke-width="1.5" stroke-linecap="round"/><path d="M235.91379,184.33655l2.25455,-2.10909" fill="none" stroke-width="1.5" stroke-linecap="round"/><path d="M240.07743,182.95473v3.27273" fill="none" stroke-width="1.5" stroke-linecap="round"/><path d="M244.09561,177.17292l-2.58182,1.23636" data-paper-data="{&quot;index&quot;:null}" fill="none" stroke-width="1.5" stroke-linecap="round"/><path d="M241.69562,180.44564h2.98181" fill="none" stroke-width="1.5" stroke-linecap="round"/><path d="M241.67743,182.20928l2.25455,2.10909" data-paper-data="{&quot;index&quot;:null}" fill="none" stroke-width="1.5" stroke-linecap="round"/></g></g></svg>