<svg version="1.1" xmlns="http://www.w3.org/2000/svg" xmlns:xlink="http://www.w3.org/1999/xlink" width="62.0408" height="40.49381" viewBox="0,0,62.0408,40.49381"><defs><radialGradient cx="246.04267" cy="171.49763" r="30.2704" gradientUnits="userSpaceOnUse" id="color-1"><stop offset="0" stop-color="#f7f7f5"/><stop offset="1" stop-color="#ccc6ba"/></radialGradient></defs><g transform="translate(-209.0084,-160.66455)"><g data-paper-data="{&quot;isPaintingLayer&quot;:true}" fill-rule="nonzero" stroke-linecap="butt" stroke-linejoin="miter" stroke-miterlimit="10" stroke-dasharray="" stroke-dashoffset="0" style="mix-blend-mode: normal"><path d="M264.46654,173.76099c-2.63186,1.02052 -5.13988,0.59551 -5.73887,-0.94927c-0.22963,-0.5922 -1.06692,-1.12242 -0.7677,-1.8827c0.48132,-1.22296 2.49225,-2.68845 4.11518,-3.31775c2.63186,-1.02052 6.13988,0.5156 6.73887,2.06039c0,0 -0.01211,0.94484 -0.68166,1.76457c-0.76115,0.93188 -2.26564,1.78183 -3.66582,2.32476z" fill="#9d533a" stroke="#000000" stroke-width="1.5"/><path d="M244.43752,200.40835c-9.50116,0 -26.63896,-5.32927 -32.59886,-14.30414c-1.26615,-1.90666 -4.8113,-14.52255 1.84893,-20.59357c5.88662,-5.36586 21.59331,-4.50058 27.1901,-2.77127c8.8201,2.72525 22.45192,10.73334 27.6822,18.70149c1.4354,2.18679 3.59807,9.34091 -1.27664,13.20536c-1.81729,1.44067 -4.60679,1.31169 -7.38755,2.1336c-6.06906,1.79383 -12.93282,3.62854 -15.45818,3.62854z" fill="url(#color-1)" stroke="#000000" stroke-width="0"/><path d="M261.82641,182.3326c0,0.65267 0.57635,1.45578 0.9866,2.32581c1.08877,2.30897 2.65586,5.08925 1.56472,6.77956c-2.57598,3.99052 -8.45306,5.63706 -12.3291,5.63706c-0.74911,0 -0.47833,-1.07953 -1.95162,-2.61558c-2.49622,-2.60254 -6.88131,-6.51556 -7.05263,-8.70874c-0.55588,-7.11592 9.77846,-15.4222 13.99431,-15.01676c1.51754,0.14595 7.55055,5.57296 10.74204,9.81018c1.34911,1.79116 1.51848,3.66836 1.71237,4.36063c0.27567,0.98426 -1.35126,-1.80138 -3.61439,-4.56288c-1.61295,-1.96814 -3.77271,-3.92402 -4.78264,-4.49413c-1.27491,-0.71969 0.73034,5.90313 0.73034,6.39394z" fill="#a97849" stroke="none" stroke-width="0"/><path d="M248.00544,178.10349c-2.27665,1.50791 -5.35327,6.046 -5.91239,5.20185c-0.28371,-0.42835 -0.75357,-2.16023 0.02552,-3.95947c0.75628,-1.74655 2.62962,-3.66768 3.75103,-4.41043c1.45508,-0.96375 3.16688,-1.5697 4.31594,-1.57221c0.64879,-0.00142 1.0224,1.17967 0.44946,2.06537c-0.56432,0.87237 -1.49987,1.92665 -2.62956,2.67489z" fill="#c28566" stroke="#000000" stroke-width="1.5"/><path d="M255.7153,186.51946c0,-0.85911 0.69645,-1.55556 1.55555,-1.55556c0.85911,0 1.55556,0.69645 1.55556,1.55556c0,0.85911 -0.69645,1.55555 -1.55556,1.55555c-0.85911,0 -1.55555,-0.69645 -1.55555,-1.55555z" fill="#000000" stroke="#000000" stroke-width="0.5"/><path d="M258.15423,186.07557c0.03053,0.3053 -0.43971,0.6023 -1.05032,0.66336c-0.6106,0.06106 -1.13035,-0.13694 -1.16088,-0.44224c-0.03053,-0.3053 0.43971,-0.6023 1.05032,-0.66336c0.6106,-0.06106 1.13035,0.13694 1.16088,0.44224z" fill="#ffffff" stroke="none" stroke-width="0"/><path d="M217.93752,176.68613c0,0.50889 0.53113,1.15647 0.5136,1.71392c-0.03447,1.09643 0.10929,2.21547 0.20608,3.39211c0.03652,0.44387 -0.31485,0.89594 -0.12959,1.35809c0.86671,2.16203 1.93467,4.58435 3.14798,6.54729c1.54196,2.49464 3.18201,4.38402 3.44878,5.54764c0.18504,0.80712 -0.34313,-0.39239 -1.1313,-0.39239c-1.94669,0 -6.6249,-2.30244 -9.73034,-5.7705c-2.91493,-3.25529 -4.32521,-7.564 -4.32521,-11.17394c0,-3.77872 0.6013,-8.69636 2.23368,-11.20312c1.58849,-2.43936 9.62728,-4.74133 11.48854,-4.74133c1.22548,0 0.0517,0.76621 -0.74182,2.0563c-0.93388,1.51828 -1.51695,4.53994 -2.61887,7.11445c-0.50972,1.1909 -0.81911,2.28077 -1.33723,3.34949c-0.34098,0.70335 -1.02431,1.33457 -1.02431,2.20199z" fill-opacity="0.60392" fill="#934700" stroke="none" stroke-width="0"/><path d="M269.06863,192.53269c0,0.55228 -0.46807,1.27273 -1.04545,1.27273c-0.24871,0 -0.61864,0.00784 -0.85572,-0.13088c-0.31331,-0.18332 -0.46246,-0.82746 -0.46246,-1.14185c0,-0.55228 0.74079,-1 1.31818,-1c0.57739,0 1.04545,0.44772 1.04545,1z" fill="#cda79e" stroke="#000000" stroke-width="0"/><path d="M244.43752,200.40835c-9.50116,0 -26.63896,-5.32927 -32.59886,-14.30414c-1.26615,-1.90666 -4.8113,-14.52255 1.84893,-20.59357c5.88662,-5.36586 21.59331,-4.50058 27.1901,-2.77127c8.8201,2.72525 22.45192,10.73334 27.6822,18.70149c1.4354,2.18679 3.59807,9.34091 -1.27664,13.20536c-1.81729,1.44067 -4.60679,1.31169 -7.38755,2.1336c-6.06906,1.79383 -12.93282,3.62854 -15.45818,3.62854z" fill="none" stroke="#000000" stroke-width="1.5"/></g></g></svg>