<svg version="1.1" xmlns="http://www.w3.org/2000/svg" xmlns:xlink="http://www.w3.org/1999/xlink" width="52.38289" height="39.46461" viewBox="0,0,52.38289,39.46461"><g transform="translate(-219.97224,-161.15392)"><g data-paper-data="{&quot;isPaintingLayer&quot;:true}" fill="#9966ff" fill-rule="nonzero" stroke="#000000" stroke-width="2" stroke-linecap="butt" stroke-linejoin="miter" stroke-miterlimit="10" stroke-dasharray="" stroke-dashoffset="0" style="mix-blend-mode: normal"><path d="M247.42843,199.05897l-5.53053,-7.17429l5.49325,-4.65448l8.88951,8.30052z" data-paper-data="{&quot;index&quot;:null}"/><path d="M221.79014,196.2912l8.51501,-8.68428l5.69306,4.40784l-5.20893,7.41109z"/><path d="M222.33051,178.42718c-0.11901,-5.39755 10.6316,-16.15208 16.12727,-16.27326c5.50166,-0.12131 16.72898,9.39006 16.84413,14.61271c0.1263,5.72795 -10.83803,18.26288 -16.38328,18.38515c-5.45042,0.12018 -16.46481,-11.13176 -16.58813,-16.7246z"/><path d="M245.50447,178.50256c0.14691,6.66261 -2.71805,12.12953 -6.39905,12.21069c-3.681,0.08116 -6.78414,-5.25415 -6.93105,-11.91676c-0.14691,-6.66261 2.71805,-12.12952 6.39906,-12.21069c3.681,-0.08116 6.78414,5.25416 6.93105,11.91678z"/><g><path d="M267.75513,181.35001v-3.1h3.6v3.1z"/><path d="M262.15513,199.04105v-17.5h9.2v17.5z"/></g></g></g></svg>